<svg xmlns="http://www.w3.org/2000/svg" xmlns:xlink="http://www.w3.org/1999/xlink" viewBox="0 0 1617.24 849.19"><defs><style>.cls-1{fill:none;}.cls-2{clip-path:url(#clip-path);}.cls-3{fill:#006934;}.cls-4{fill:#0b2d15;}.cls-5{fill:#132e28;}.cls-6{fill:#231815;}.cls-7{fill:#365a37;}.cls-8{fill:#0a3a16;}.cls-9{fill:#fff;}</style><clipPath id="clip-path" transform="translate(167.66 111.09)"><rect class="cls-1" width="1280" height="499.62"/></clipPath></defs><g id="レイヤー_2" data-name="レイヤー 2"><g id="レイヤー_1-2" data-name="レイヤー 1"><g class="cls-2"><rect class="cls-3" x="378.43" y="233.82" width="164.71" height="43.56"/><rect class="cls-4" x="510.48" y="214.77" width="164.71" height="43.56"/><rect class="cls-5" x="329.43" y="265.13" width="164.71" height="43.56"/><rect class="cls-6" x="469.64" y="277.38" width="164.71" height="43.56"/><rect class="cls-7" x="588.07" y="239.27" width="164.71" height="43.56"/><rect class="cls-8" x="439.69" y="251.52" width="164.71" height="43.56"/><rect class="cls-3" x="587.39" y="216.13" width="164.71" height="43.56"/><rect class="cls-4" x="719.43" y="197.07" width="164.71" height="43.56"/><rect class="cls-5" x="538.38" y="247.44" width="164.71" height="43.56"/><rect class="cls-6" x="678.6" y="259.69" width="164.71" height="43.56"/><rect class="cls-7" x="797.03" y="221.57" width="164.71" height="43.56"/><rect class="cls-8" x="648.65" y="233.82" width="164.71" height="43.56"/><rect class="cls-3" x="401.58" y="303.25" width="164.71" height="43.56"/><rect class="cls-4" x="533.62" y="284.19" width="164.71" height="43.56"/><rect class="cls-5" x="352.57" y="334.56" width="164.71" height="43.56"/><rect class="cls-6" x="492.78" y="346.81" width="164.71" height="43.56"/><rect class="cls-7" x="611.21" y="308.69" width="164.71" height="43.56"/><rect class="cls-8" x="462.83" y="320.95" width="164.71" height="43.56"/><rect class="cls-3" x="142.93" y="89.53" width="164.71" height="43.56"/><rect class="cls-4" x="274.98" y="70.47" width="164.71" height="43.56"/><rect class="cls-5" x="93.93" y="120.84" width="164.71" height="43.56"/><rect class="cls-6" x="234.14" y="133.09" width="164.71" height="43.56"/><rect class="cls-7" x="352.57" y="94.97" width="164.71" height="43.56"/><rect class="cls-8" x="204.19" y="107.23" width="164.71" height="43.56"/><rect class="cls-3" x="317.18" y="534.67" width="164.71" height="43.56"/><rect class="cls-4" x="449.22" y="515.61" width="164.71" height="43.56"/><rect class="cls-5" x="268.17" y="565.98" width="164.71" height="43.56"/><rect class="cls-6" x="408.38" y="578.23" width="164.71" height="43.56"/><rect class="cls-7" x="526.81" y="540.11" width="164.71" height="43.56"/><rect class="cls-8" x="378.43" y="552.36" width="164.71" height="43.56"/><rect class="cls-3" x="356.65" y="173.93" width="164.71" height="43.56"/><rect class="cls-4" x="488.7" y="154.87" width="164.71" height="43.56"/><rect class="cls-5" x="307.65" y="205.24" width="164.71" height="43.56"/><rect class="cls-6" x="447.86" y="217.49" width="164.71" height="43.56"/><rect class="cls-7" x="566.29" y="179.37" width="164.71" height="43.56"/><rect class="cls-8" x="417.91" y="191.62" width="164.71" height="43.56"/><rect class="cls-3" x="382.52" y="92.25" width="164.71" height="43.56"/><rect class="cls-4" x="514.56" y="73.19" width="164.71" height="43.56"/><rect class="cls-5" x="333.51" y="123.56" width="164.71" height="43.56"/><rect class="cls-6" x="473.72" y="135.81" width="164.71" height="43.56"/><rect class="cls-7" x="592.15" y="97.7" width="164.71" height="43.56"/><rect class="cls-8" x="443.78" y="109.95" width="164.71" height="43.56"/><rect class="cls-3" x="132.04" y="285.55" width="164.71" height="43.56"/><rect class="cls-4" x="264.09" y="266.49" width="164.71" height="43.56"/><rect class="cls-5" x="83.04" y="316.86" width="164.71" height="43.56"/><rect class="cls-6" x="223.25" y="329.11" width="164.71" height="43.56"/><rect class="cls-7" x="341.68" y="291" width="164.71" height="43.56"/><rect class="cls-8" x="193.3" y="303.25" width="164.71" height="43.56"/><rect class="cls-3" x="276.34" y="399.9" width="164.71" height="43.56"/><rect class="cls-4" x="408.38" y="380.84" width="164.71" height="43.56"/><rect class="cls-5" x="227.33" y="431.21" width="164.71" height="43.56"/><rect class="cls-6" x="367.54" y="443.46" width="164.71" height="43.56"/><rect class="cls-7" x="485.98" y="405.34" width="164.71" height="43.56"/><rect class="cls-8" x="337.6" y="417.6" width="164.71" height="43.56"/><rect class="cls-3" x="637.76" y="281.47" width="164.71" height="43.56"/><rect class="cls-4" x="769.8" y="262.41" width="164.71" height="43.56"/><rect class="cls-5" x="588.75" y="312.78" width="164.71" height="43.56"/><rect class="cls-6" x="728.96" y="325.03" width="164.71" height="43.56"/><rect class="cls-7" x="847.39" y="286.91" width="164.71" height="43.56"/><rect class="cls-8" x="699.02" y="299.17" width="164.71" height="43.56"/><rect class="cls-3" x="784.78" y="149.42" width="164.71" height="43.56"/><rect class="cls-4" x="916.82" y="130.37" width="164.71" height="43.56"/><rect class="cls-5" x="735.77" y="180.73" width="164.71" height="43.56"/><rect class="cls-6" x="875.98" y="192.99" width="164.71" height="43.56"/><rect class="cls-7" x="994.41" y="154.87" width="164.71" height="43.56"/><rect class="cls-8" x="846.03" y="167.12" width="164.71" height="43.56"/><rect class="cls-3" x="901.85" y="82.72" width="164.71" height="43.56"/><rect class="cls-4" x="1033.89" y="63.66" width="164.71" height="43.56"/><rect class="cls-5" x="852.84" y="114.03" width="164.71" height="43.56"/><rect class="cls-6" x="993.05" y="126.28" width="164.71" height="43.56"/><rect class="cls-7" x="1111.48" y="88.17" width="164.71" height="43.56"/><rect class="cls-8" x="963.1" y="100.42" width="164.71" height="43.56"/><rect class="cls-3" x="1140.07" y="120.84" width="164.71" height="43.56"/><rect class="cls-4" x="1272.11" y="101.78" width="164.71" height="43.56"/><rect class="cls-5" x="1091.06" y="152.15" width="164.71" height="43.56"/><rect class="cls-6" x="1231.27" y="164.4" width="164.71" height="43.56"/><rect class="cls-7" x="1349.7" y="126.28" width="164.71" height="43.56"/><rect class="cls-8" x="1201.33" y="138.53" width="164.71" height="43.56"/><rect class="cls-3" x="160.63" y="158.95" width="164.71" height="43.56"/><rect class="cls-4" x="292.67" y="139.9" width="164.71" height="43.56"/><rect class="cls-5" x="111.62" y="190.26" width="164.71" height="43.56"/><rect class="cls-6" x="251.84" y="202.51" width="164.71" height="43.56"/><rect class="cls-7" x="370.27" y="164.4" width="164.71" height="43.56"/><rect class="cls-8" x="221.89" y="176.65" width="164.71" height="43.56"/><rect class="cls-3" x="1167.97" y="511.52" width="164.71" height="43.56"/><rect class="cls-4" x="1300.02" y="492.47" width="164.71" height="43.56"/><rect class="cls-5" x="1118.97" y="542.83" width="164.71" height="43.56"/><rect class="cls-6" x="1259.18" y="555.08" width="164.71" height="43.56"/><rect class="cls-7" x="1377.61" y="516.97" width="164.71" height="43.56"/><rect class="cls-8" x="1229.23" y="529.22" width="164.71" height="43.56"/><rect class="cls-3" x="935.2" y="431.21" width="164.71" height="43.56"/><rect class="cls-4" x="1067.24" y="412.15" width="164.71" height="43.56"/><rect class="cls-5" x="886.19" y="462.52" width="164.71" height="43.56"/><rect class="cls-6" x="1026.4" y="474.77" width="164.71" height="43.56"/><rect class="cls-7" x="1144.83" y="436.65" width="164.71" height="43.56"/><rect class="cls-8" x="996.45" y="448.91" width="164.71" height="43.56"/><rect class="cls-3" x="160.63" y="440.74" width="164.71" height="43.56"/><rect class="cls-4" x="292.67" y="421.68" width="164.71" height="43.56"/><rect class="cls-5" x="111.62" y="472.05" width="164.71" height="43.56"/><rect class="cls-6" x="251.84" y="484.3" width="164.71" height="43.56"/><rect class="cls-7" x="370.27" y="446.18" width="164.71" height="43.56"/><rect class="cls-8" x="221.89" y="458.43" width="164.71" height="43.56"/><rect class="cls-3" x="982.84" y="271.94" width="164.71" height="43.56"/><rect class="cls-4" x="1114.88" y="252.88" width="164.71" height="43.56"/><rect class="cls-5" x="933.84" y="303.25" width="164.71" height="43.56"/><rect class="cls-6" x="1074.05" y="315.5" width="164.71" height="43.56"/><rect class="cls-7" x="1192.48" y="277.38" width="164.71" height="43.56"/><rect class="cls-8" x="1044.1" y="289.64" width="164.71" height="43.56"/><rect class="cls-3" x="1004.62" y="195.71" width="164.71" height="43.56"/><rect class="cls-4" x="1136.67" y="176.65" width="164.71" height="43.56"/><rect class="cls-5" x="955.62" y="227.02" width="164.71" height="43.56"/><rect class="cls-6" x="1095.83" y="239.27" width="164.71" height="43.56"/><rect class="cls-7" x="1214.26" y="201.15" width="164.71" height="43.56"/><rect class="cls-8" x="1065.88" y="213.4" width="164.71" height="43.56"/><rect class="cls-3" x="49.01" y="227.02" width="164.71" height="43.56"/><rect class="cls-4" x="181.05" y="207.96" width="164.71" height="43.56"/><rect class="cls-5" y="258.33" width="164.71" height="43.56"/><rect class="cls-6" x="140.21" y="270.58" width="164.71" height="43.56"/><rect class="cls-7" x="258.64" y="232.46" width="164.71" height="43.56"/><rect class="cls-8" x="110.26" y="244.71" width="164.71" height="43.56"/><rect class="cls-3" x="882.11" y="499.27" width="164.71" height="43.56"/><rect class="cls-4" x="1014.15" y="480.21" width="164.71" height="43.56"/><rect class="cls-5" x="833.1" y="530.58" width="164.71" height="43.56"/><rect class="cls-6" x="973.31" y="542.83" width="164.71" height="43.56"/><rect class="cls-7" x="1091.74" y="504.72" width="164.71" height="43.56"/><rect class="cls-8" x="943.36" y="516.97" width="164.71" height="43.56"/><rect class="cls-3" x="172.88" y="548.28" width="164.71" height="43.56"/><rect class="cls-4" x="304.93" y="529.22" width="164.71" height="43.56"/><rect class="cls-5" x="123.88" y="579.59" width="164.71" height="43.56"/><rect class="cls-6" x="264.09" y="591.84" width="164.71" height="43.56"/><rect class="cls-7" x="382.52" y="553.72" width="164.71" height="43.56"/><rect class="cls-8" x="234.14" y="565.98" width="164.71" height="43.56"/><rect class="cls-3" x="282.52" y="168.95" width="164.71" height="43.56" transform="translate(723.67 -62.84) rotate(90.06)"/><rect class="cls-4" x="301.43" y="301.02" width="164.71" height="43.56" transform="translate(874.67 50.46) rotate(90.06)"/><rect class="cls-5" x="251.26" y="119.91" width="164.71" height="43.56" transform="translate(643.34 -80.68) rotate(90.06)"/><rect class="cls-6" x="238.85" y="260.11" width="164.71" height="43.56" transform="translate(771.12 72.08) rotate(90.06)"/><rect class="cls-7" x="276.84" y="378.58" width="164.71" height="43.56" transform="translate(927.62 152.7) rotate(90.06)"/><rect class="cls-8" x="264.75" y="230.19" width="164.71" height="43.56" transform="translate(767.12 16.23) rotate(90.06)"/><rect class="cls-3" x="707.07" y="163.37" width="164.71" height="43.56" transform="translate(1143.11 -492.98) rotate(90.06)"/><rect class="cls-4" x="725.98" y="295.43" width="164.71" height="43.56" transform="translate(1294.11 -379.68) rotate(90.06)"/><rect class="cls-5" x="675.82" y="114.33" width="164.71" height="43.56" transform="translate(1062.78 -510.82) rotate(90.06)"/><rect class="cls-6" x="663.41" y="254.52" width="164.71" height="43.56" transform="translate(1190.56 -358.06) rotate(90.06)"/><rect class="cls-7" x="701.39" y="373" width="164.71" height="43.56" transform="translate(1347.06 -277.44) rotate(90.06)"/><rect class="cls-8" x="689.31" y="224.61" width="164.71" height="43.56" transform="translate(1186.56 -413.91) rotate(90.06)"/><rect class="cls-3" x="212.25" y="424.31" width="164.71" height="43.56" transform="translate(908.68 263.06) rotate(90.06)"/><rect class="cls-4" x="231.16" y="556.37" width="164.71" height="43.56" transform="translate(1059.68 376.36) rotate(90.06)"/><rect class="cls-5" x="181" y="375.27" width="164.71" height="43.56" transform="translate(828.35 245.22) rotate(90.06)"/><rect class="cls-6" x="168.59" y="515.46" width="164.71" height="43.56" transform="translate(956.13 397.98) rotate(90.06)"/><rect class="cls-7" x="206.58" y="633.94" width="164.71" height="43.56" transform="translate(1112.63 478.6) rotate(90.06)"/><rect class="cls-8" x="194.49" y="485.54" width="164.71" height="43.56" transform="translate(952.14 342.13) rotate(90.06)"/><rect class="cls-3" x="531.18" y="424.31" width="164.71" height="43.56" transform="translate(1227.96 -55.86) rotate(90.06)"/><rect class="cls-4" x="550.09" y="556.37" width="164.71" height="43.56" transform="translate(1378.96 57.44) rotate(90.06)"/><rect class="cls-5" x="499.92" y="375.27" width="164.71" height="43.56" transform="translate(1147.63 -73.7) rotate(90.06)"/><rect class="cls-6" x="487.52" y="515.46" width="164.71" height="43.56" transform="translate(1275.41 79.06) rotate(90.06)"/><rect class="cls-7" x="525.5" y="633.94" width="164.71" height="43.56" transform="translate(1431.91 159.68) rotate(90.06)"/><rect class="cls-8" x="513.41" y="485.54" width="164.71" height="43.56" transform="translate(1271.42 23.21) rotate(90.06)"/><rect class="cls-3" x="134.94" y="306.4" width="164.71" height="43.56" transform="translate(713.38 222.34) rotate(90.06)"/><rect class="cls-4" x="153.85" y="438.47" width="164.71" height="43.56" transform="translate(864.37 335.64) rotate(90.06)"/><rect class="cls-5" x="103.68" y="257.36" width="164.71" height="43.56" transform="translate(633.05 204.5) rotate(90.06)"/><rect class="cls-6" x="91.28" y="397.56" width="164.71" height="43.56" transform="translate(760.82 357.26) rotate(90.06)"/><rect class="cls-7" x="129.26" y="516.03" width="164.71" height="43.56" transform="translate(917.32 437.88) rotate(90.06)"/><rect class="cls-8" x="117.17" y="367.64" width="164.71" height="43.56" transform="translate(756.83 301.41) rotate(90.06)"/><rect class="cls-3" x="855.9" y="147.9" width="164.71" height="43.56" transform="translate(1276.64 -657.3) rotate(90.06)"/><rect class="cls-4" x="874.81" y="279.97" width="164.71" height="43.56" transform="translate(1427.64 -544) rotate(90.06)"/><rect class="cls-5" x="824.65" y="98.86" width="164.71" height="43.56" transform="translate(1196.31 -675.14) rotate(90.06)"/><rect class="cls-6" x="812.24" y="239.06" width="164.71" height="43.56" transform="translate(1324.09 -522.38) rotate(90.06)"/><rect class="cls-7" x="850.23" y="357.53" width="164.71" height="43.56" transform="translate(1480.59 -441.76) rotate(90.06)"/><rect class="cls-8" x="838.14" y="209.14" width="164.71" height="43.56" transform="translate(1320.1 -578.23) rotate(90.06)"/><rect class="cls-3" x="1033.73" y="196.23" width="164.71" height="43.56" transform="translate(1502.99 -786.75) rotate(90.06)"/><rect class="cls-4" x="1052.64" y="328.29" width="164.71" height="43.56" transform="translate(1653.99 -673.45) rotate(90.06)"/><rect class="cls-5" x="1002.47" y="147.19" width="164.71" height="43.56" transform="translate(1422.66 -804.59) rotate(90.06)"/><rect class="cls-6" x="990.07" y="287.38" width="164.71" height="43.56" transform="translate(1550.44 -651.83) rotate(90.06)"/><rect class="cls-7" x="1028.05" y="405.86" width="164.71" height="43.56" transform="translate(1706.94 -571.21) rotate(90.06)"/><rect class="cls-8" x="1015.96" y="257.46" width="164.71" height="43.56" transform="translate(1546.44 -707.68) rotate(90.06)"/><rect class="cls-3" x="65.35" y="171.1" width="164.71" height="43.56" transform="translate(508.41 156.47) rotate(90.06)"/><rect class="cls-4" x="84.27" y="303.16" width="164.71" height="43.56" transform="translate(659.41 269.77) rotate(90.06)"/><rect class="cls-5" x="34.1" y="122.06" width="164.71" height="43.56" transform="translate(428.08 138.63) rotate(90.06)"/><rect class="cls-6" x="21.69" y="262.26" width="164.71" height="43.56" transform="translate(555.86 291.39) rotate(90.06)"/><rect class="cls-7" x="59.68" y="380.73" width="164.71" height="43.56" transform="translate(712.36 372.01) rotate(90.06)"/><rect class="cls-8" x="47.59" y="232.34" width="164.71" height="43.56" transform="translate(551.87 235.54) rotate(90.06)"/><rect class="cls-3" x="568.58" y="194.08" width="164.71" height="43.56" transform="translate(1035.18 -323.75) rotate(90.06)"/><rect class="cls-4" x="587.49" y="326.14" width="164.71" height="43.56" transform="translate(1186.18 -210.45) rotate(90.06)"/><rect class="cls-5" x="537.33" y="145.04" width="164.71" height="43.56" transform="translate(954.85 -341.59) rotate(90.06)"/><rect class="cls-6" x="524.92" y="285.24" width="164.71" height="43.56" transform="translate(1082.63 -188.83) rotate(90.06)"/><rect class="cls-7" x="562.91" y="403.71" width="164.71" height="43.56" transform="translate(1239.13 -108.21) rotate(90.06)"/><rect class="cls-8" x="550.82" y="255.32" width="164.71" height="43.56" transform="translate(1078.63 -244.68) rotate(90.06)"/><rect class="cls-3" x="145.28" y="107.1" width="164.71" height="43.56" transform="translate(524.43 12.47) rotate(90.06)"/><rect class="cls-4" x="164.19" y="239.16" width="164.71" height="43.56" transform="translate(675.43 125.77) rotate(90.06)"/><rect class="cls-5" x="114.03" y="58.06" width="164.71" height="43.56" transform="translate(444.1 -5.36) rotate(90.06)"/><rect class="cls-6" x="101.62" y="198.26" width="164.71" height="43.56" transform="translate(571.88 147.39) rotate(90.06)"/><rect class="cls-7" x="139.6" y="316.73" width="164.71" height="43.56" transform="translate(728.38 228.01) rotate(90.06)"/><rect class="cls-8" x="127.52" y="168.34" width="164.71" height="43.56" transform="translate(567.88 91.55) rotate(90.06)"/><rect class="cls-3" x="1235.8" y="105.13" width="164.71" height="43.56" transform="translate(2803.84 366.36) rotate(-179.94)"/><rect class="cls-4" x="1103.74" y="124.04" width="164.71" height="43.56" transform="translate(2539.69 404.04) rotate(-179.94)"/><rect class="cls-5" x="1284.84" y="73.87" width="164.71" height="43.56" transform="translate(2901.95 303.91) rotate(-179.94)"/><rect class="cls-6" x="1144.64" y="61.46" width="164.71" height="43.56" transform="translate(2621.57 278.94) rotate(-179.94)"/><rect class="cls-7" x="1026.17" y="99.45" width="164.71" height="43.56" transform="translate(2384.58 354.78) rotate(-179.94)"/><rect class="cls-8" x="1174.56" y="87.36" width="164.71" height="43.56" transform="translate(2681.38 330.77) rotate(-179.94)"/><rect class="cls-3" x="954.02" y="253.51" width="164.71" height="43.56" transform="translate(2240.1 662.81) rotate(-179.94)"/><rect class="cls-4" x="821.95" y="272.42" width="164.71" height="43.56" transform="translate(1975.95 700.49) rotate(-179.94)"/><rect class="cls-5" x="1003.06" y="222.25" width="164.71" height="43.56" transform="translate(2338.22 600.35) rotate(-179.94)"/><rect class="cls-6" x="862.86" y="209.84" width="164.71" height="43.56" transform="translate(2057.84 575.38) rotate(-179.94)"/><rect class="cls-7" x="744.39" y="247.83" width="164.71" height="43.56" transform="translate(1820.85 651.22) rotate(-179.94)"/><rect class="cls-8" x="892.78" y="235.74" width="164.71" height="43.56" transform="translate(2117.65 627.21) rotate(-179.94)"/><rect class="cls-3" x="125" y="407.33" width="164.71" height="43.56" transform="translate(581.9 969.54) rotate(-179.94)"/><rect class="cls-4" x="-7.06" y="426.24" width="164.71" height="43.56" transform="translate(317.75 1007.22) rotate(-179.94)"/><rect class="cls-5" x="174.04" y="376.07" width="164.71" height="43.56" transform="translate(680.02 907.08) rotate(-179.94)"/><rect class="cls-6" x="33.84" y="363.67" width="164.71" height="43.56" transform="translate(399.63 882.11) rotate(-179.94)"/><rect class="cls-7" x="-84.63" y="401.65" width="164.71" height="43.56" transform="translate(162.65 957.95) rotate(-179.94)"/><rect class="cls-8" x="63.76" y="389.56" width="164.71" height="43.56" transform="translate(459.44 933.94) rotate(-179.94)"/><rect class="cls-3" x="84.16" y="273.92" width="164.71" height="43.56" transform="translate(500.37 702.68) rotate(-179.94)"/><rect class="cls-4" x="-47.9" y="292.84" width="164.71" height="43.56" transform="translate(236.22 740.36) rotate(-179.94)"/><rect class="cls-5" x="133.2" y="242.67" width="164.71" height="43.56" transform="translate(598.49 640.23) rotate(-179.94)"/><rect class="cls-6" x="-7" y="230.26" width="164.71" height="43.56" transform="translate(318.11 615.26) rotate(-179.94)"/><rect class="cls-7" x="-125.47" y="268.25" width="164.71" height="43.56" transform="translate(81.12 691.1) rotate(-179.94)"/><rect class="cls-8" x="22.92" y="256.16" width="164.71" height="43.56" transform="translate(377.92 667.09) rotate(-179.94)"/><rect class="cls-3" x="341.44" y="301.15" width="164.71" height="43.56" transform="translate(1014.9 757.42) rotate(-179.94)"/><rect class="cls-4" x="209.38" y="320.06" width="164.71" height="43.56" transform="translate(750.75 795.1) rotate(-179.94)"/><rect class="cls-5" x="390.48" y="269.89" width="164.71" height="43.56" transform="translate(1113.02 694.96) rotate(-179.94)"/><rect class="cls-6" x="250.29" y="257.49" width="164.71" height="43.56" transform="translate(832.64 670) rotate(-179.94)"/><rect class="cls-7" x="131.81" y="295.47" width="164.71" height="43.56" transform="translate(595.65 745.83) rotate(-179.94)"/><rect class="cls-8" x="280.21" y="283.39" width="164.71" height="43.56" transform="translate(892.45 721.82) rotate(-179.94)"/><rect class="cls-3" x="657.92" y="245.19" width="164.71" height="43.56" transform="translate(1647.92 645.86) rotate(-179.94)"/><rect class="cls-4" x="525.85" y="264.11" width="164.71" height="43.56" transform="translate(1383.77 683.54) rotate(-179.94)"/><rect class="cls-5" x="706.96" y="213.94" width="164.71" height="43.56" transform="translate(1746.03 583.4) rotate(-179.94)"/><rect class="cls-6" x="566.76" y="201.53" width="164.71" height="43.56" transform="translate(1465.65 558.43) rotate(-179.94)"/><rect class="cls-7" x="448.29" y="239.52" width="164.71" height="43.56" transform="translate(1228.66 634.27) rotate(-179.94)"/><rect class="cls-8" x="596.68" y="227.43" width="164.71" height="43.56" transform="translate(1525.46 610.26) rotate(-179.94)"/><rect class="cls-3" x="410.17" y="377.24" width="164.71" height="43.56" transform="translate(1152.27 909.67) rotate(-179.94)"/><rect class="cls-4" x="278.1" y="396.15" width="164.71" height="43.56" transform="translate(888.11 947.35) rotate(-179.94)"/><rect class="cls-5" x="459.21" y="345.98" width="164.71" height="43.56" transform="translate(1250.38 847.22) rotate(-179.94)"/><rect class="cls-6" x="319.01" y="333.58" width="164.71" height="43.56" transform="translate(970 822.25) rotate(-179.94)"/><rect class="cls-7" x="200.54" y="371.56" width="164.71" height="43.56" transform="translate(733.01 898.09) rotate(-179.94)"/><rect class="cls-8" x="348.93" y="359.47" width="164.71" height="43.56" transform="translate(1029.81 874.08) rotate(-179.94)"/><rect class="cls-3" x="830.14" y="122.82" width="164.71" height="43.56" transform="translate(1992.5 401.31) rotate(-179.94)"/><rect class="cls-4" x="698.08" y="141.73" width="164.71" height="43.56" transform="translate(1728.35 438.98) rotate(-179.94)"/><rect class="cls-5" x="879.18" y="91.57" width="164.71" height="43.56" transform="translate(2090.61 338.85) rotate(-179.94)"/><rect class="cls-6" x="738.98" y="79.16" width="164.71" height="43.56" transform="translate(1810.23 313.88) rotate(-179.94)"/><rect class="cls-7" x="620.51" y="117.15" width="164.71" height="43.56" transform="translate(1573.24 389.72) rotate(-179.94)"/><rect class="cls-8" x="768.9" y="105.06" width="164.71" height="43.56" transform="translate(1870.04 365.71) rotate(-179.94)"/><rect class="cls-3" x="1207.21" y="363.77" width="164.71" height="43.56" transform="translate(2746.38 883.62) rotate(-179.94)"/><rect class="cls-4" x="1075.15" y="382.68" width="164.71" height="43.56" transform="translate(2482.23 921.29) rotate(-179.94)"/><rect class="cls-5" x="1256.26" y="332.51" width="164.71" height="43.56" transform="translate(2844.49 821.16) rotate(-179.94)"/><rect class="cls-6" x="1116.06" y="320.11" width="164.71" height="43.56" transform="translate(2564.11 796.19) rotate(-179.94)"/><rect class="cls-7" x="997.58" y="358.09" width="164.71" height="43.56" transform="translate(2327.12 872.03) rotate(-179.94)"/><rect class="cls-8" x="1145.98" y="346" width="164.71" height="43.56" transform="translate(2623.92 848.02) rotate(-179.94)"/><rect class="cls-3" x="619.14" y="395.08" width="164.71" height="43.56" transform="translate(1570.2 945.58) rotate(-179.94)"/><rect class="cls-4" x="487.08" y="413.99" width="164.71" height="43.56" transform="translate(1306.05 983.26) rotate(-179.94)"/><rect class="cls-5" x="668.18" y="363.82" width="164.71" height="43.56" transform="translate(1668.31 883.13) rotate(-179.94)"/><rect class="cls-6" x="527.99" y="351.42" width="164.71" height="43.56" transform="translate(1387.93 858.16) rotate(-179.94)"/><rect class="cls-7" x="409.51" y="389.4" width="164.71" height="43.56" transform="translate(1150.94 934) rotate(-179.94)"/><rect class="cls-8" x="557.91" y="377.31" width="164.71" height="43.56" transform="translate(1447.74 909.99) rotate(-179.94)"/><rect class="cls-3" x="608.49" y="122.2" width="164.71" height="43.56"/><rect class="cls-4" x="740.53" y="103.14" width="164.71" height="43.56"/><rect class="cls-5" x="559.48" y="153.51" width="164.71" height="43.56"/><rect class="cls-6" x="699.7" y="165.76" width="164.71" height="43.56"/><rect class="cls-7" x="818.13" y="127.64" width="164.71" height="43.56"/><rect class="cls-8" x="669.75" y="139.9" width="164.71" height="43.56"/><rect class="cls-3" x="888.91" y="559.17" width="164.71" height="43.56"/><rect class="cls-4" x="1020.96" y="540.11" width="164.71" height="43.56"/><rect class="cls-5" x="839.91" y="590.48" width="164.71" height="43.56"/><rect class="cls-6" x="980.12" y="602.73" width="164.71" height="43.56"/><rect class="cls-7" x="1098.55" y="564.61" width="164.71" height="43.56"/><rect class="cls-8" x="950.17" y="576.87" width="164.71" height="43.56"/><rect class="cls-3" x="598.96" y="545.56" width="164.71" height="43.56"/><rect class="cls-4" x="731" y="526.5" width="164.71" height="43.56"/><rect class="cls-5" x="549.96" y="576.87" width="164.71" height="43.56"/><rect class="cls-6" x="690.17" y="589.12" width="164.71" height="43.56"/><rect class="cls-7" x="808.6" y="551" width="164.71" height="43.56"/><rect class="cls-8" x="660.22" y="563.25" width="164.71" height="43.56"/><rect class="cls-3" x="1196.56" y="367.23" width="164.71" height="43.56"/><rect class="cls-4" x="1328.6" y="348.17" width="164.71" height="43.56"/><rect class="cls-5" x="1147.56" y="398.54" width="164.71" height="43.56"/><rect class="cls-6" x="1287.77" y="410.79" width="164.71" height="43.56"/><rect class="cls-7" x="1406.2" y="372.67" width="164.71" height="43.56"/><rect class="cls-8" x="1257.82" y="384.93" width="164.71" height="43.56"/><rect class="cls-3" x="1230.59" y="273.3" width="164.71" height="43.56"/><rect class="cls-4" x="1362.64" y="254.24" width="164.71" height="43.56"/><rect class="cls-5" x="1181.59" y="304.61" width="164.71" height="43.56"/><rect class="cls-6" x="1321.8" y="316.86" width="164.71" height="43.56"/><rect class="cls-7" x="1440.23" y="278.75" width="164.71" height="43.56"/><rect class="cls-8" x="1291.85" y="291" width="164.71" height="43.56"/><rect class="cls-3" x="698.33" y="389.01" width="164.71" height="43.56"/><rect class="cls-4" x="830.38" y="369.95" width="164.71" height="43.56"/><rect class="cls-5" x="649.33" y="420.32" width="164.71" height="43.56"/><rect class="cls-6" x="789.54" y="432.57" width="164.71" height="43.56"/><rect class="cls-7" x="907.97" y="394.45" width="164.71" height="43.56"/><rect class="cls-8" x="759.59" y="406.71" width="164.71" height="43.56"/><rect class="cls-3" x="1210.17" y="86.81" width="164.71" height="43.56"/><rect class="cls-4" x="1342.22" y="67.75" width="164.71" height="43.56"/><rect class="cls-5" x="1161.17" y="118.12" width="164.71" height="43.56"/><rect class="cls-6" x="1301.38" y="130.37" width="164.71" height="43.56"/><rect class="cls-7" x="1419.81" y="92.25" width="164.71" height="43.56"/><rect class="cls-8" x="1271.43" y="104.5" width="164.71" height="43.56"/><rect class="cls-3" x="1187.03" y="565.98" width="164.71" height="43.56"/><rect class="cls-4" x="1319.08" y="546.92" width="164.71" height="43.56"/><rect class="cls-5" x="1138.03" y="597.28" width="164.71" height="43.56"/><rect class="cls-6" x="1278.24" y="609.54" width="164.71" height="43.56"/><rect class="cls-7" x="1396.67" y="571.42" width="164.71" height="43.56"/><rect class="cls-8" x="1248.29" y="583.67" width="164.71" height="43.56"/><rect class="cls-3" x="707.07" y="180.76" width="164.71" height="43.56" transform="translate(1160.51 -475.57) rotate(90.06)"/><rect class="cls-4" x="725.98" y="312.83" width="164.71" height="43.56" transform="translate(1311.5 -362.27) rotate(90.06)"/><rect class="cls-5" x="675.82" y="131.72" width="164.71" height="43.56" transform="translate(1080.18 -493.41) rotate(90.06)"/><rect class="cls-6" x="663.41" y="271.92" width="164.71" height="43.56" transform="translate(1207.95 -340.65) rotate(90.06)"/><rect class="cls-7" x="701.39" y="390.39" width="164.71" height="43.56" transform="translate(1364.45 -260.03) rotate(90.06)"/><rect class="cls-8" x="689.31" y="242" width="164.71" height="43.56" transform="translate(1203.96 -396.5) rotate(90.06)"/><rect class="cls-3" x="380.41" y="174.96" width="164.71" height="43.56" transform="translate(827.69 -154.72) rotate(90.06)"/><rect class="cls-4" x="399.33" y="307.03" width="164.71" height="43.56" transform="translate(978.69 -41.42) rotate(90.06)"/><rect class="cls-5" x="349.16" y="125.92" width="164.71" height="43.56" transform="translate(747.36 -172.56) rotate(90.06)"/><rect class="cls-6" x="336.75" y="266.12" width="164.71" height="43.56" transform="translate(875.14 -19.8) rotate(90.06)"/><rect class="cls-7" x="374.74" y="384.59" width="164.71" height="43.56" transform="translate(1031.64 60.82) rotate(90.06)"/><rect class="cls-8" x="362.65" y="236.2" width="164.71" height="43.56" transform="translate(871.14 -75.65) rotate(90.06)"/><rect class="cls-3" x="-62.22" y="229.09" width="164.71" height="43.56" transform="translate(438.69 342.09) rotate(90.06)"/><rect class="cls-4" x="-43.3" y="361.15" width="164.71" height="43.56" transform="translate(589.69 455.39) rotate(90.06)"/><rect class="cls-5" x="-93.47" y="180.04" width="164.71" height="43.56" transform="translate(358.36 324.25) rotate(90.06)"/><rect class="cls-6" x="-105.88" y="320.24" width="164.71" height="43.56" transform="translate(486.14 477.01) rotate(90.06)"/><rect class="cls-7" x="-67.89" y="438.72" width="164.71" height="43.56" transform="translate(642.64 557.63) rotate(90.06)"/><rect class="cls-8" x="-79.98" y="290.32" width="164.71" height="43.56" transform="translate(482.14 421.16) rotate(90.06)"/><path class="cls-9" d="M1194-14.51c-20.12-13.08-57.34-32.2-106.63-32.2-60.36,0-92.56,37.23-92.56,81.49,0,47.28,31.19,69.41,101.61,99.59,88.53,36.22,139.83,82.49,139.83,165,0,97.58-74.44,162-194.15,162-54.33,0-106.64-15.09-143.86-37.22l23.14-64.38c29.17,17.1,76.45,37.22,123.73,37.22,73.44,0,109.66-39.24,109.66-88.53,0-51.3-29.18-79.47-101.61-108.65C960.6,162.54,913.32,111.24,913.32,44.84c0-85.51,68.41-155.93,179.07-155.93,52.31,0,96.57,15.09,125.75,33.2Z" transform="translate(167.66 111.09)"/><path class="cls-9" d="M1219.89,153.43c-20.12-13.08-57.34-32.19-106.63-32.19-60.36,0-92.56,37.22-92.56,81.49,0,47.28,31.19,69.41,101.61,99.59,88.53,36.21,139.83,82.49,139.83,165,0,97.58-74.44,162-194.15,162-54.33,0-106.64-15.09-143.86-37.22l23.14-64.39c29.17,17.1,76.45,37.22,123.73,37.22,73.44,0,109.66-39.23,109.66-88.52,0-51.31-29.18-79.48-101.61-108.65-92.55-37.22-139.83-88.53-139.83-154.93,0-85.5,68.41-155.92,179.07-155.92,52.31,0,96.57,15.09,125.75,33.19Z" transform="translate(167.66 111.09)"/></g></g></g></svg>