<?xml version="1.0" encoding="utf-8"?>
<!-- Generator: Adobe Illustrator 25.4.1, SVG Export Plug-In . SVG Version: 6.00 Build 0)  -->
<svg version="1.1" id="レイヤー_1" xmlns="http://www.w3.org/2000/svg" xmlns:xlink="http://www.w3.org/1999/xlink" x="0px"
	 y="0px" viewBox="0 0 1280 500.8" style="enable-background:new 0 0 1280 500.8;" xml:space="preserve">
<style type="text/css">
	.st0{fill:#B5B5B6;}
	.st1{fill:none;stroke:#3E3A39;stroke-width:7;stroke-miterlimit:10;}
	.st2{fill:none;stroke:#B5B5B6;stroke-width:93;stroke-miterlimit:10;}
	.st3{fill:none;stroke:#3E3A39;stroke-width:93;stroke-miterlimit:10;}
	.st4{fill:none;stroke:#3E3A39;stroke-width:93;stroke-miterlimit:10;stroke-dasharray:11.88,11.88;}
	.st5{fill:#383839;}
</style>
<g id="レイヤー_2_00000098939712489383983910000015730824233191917189_">
	<g id="レイヤー_1-2">
		<rect y="0.8" class="st0" width="1280" height="499.2"/>
		<line class="st1" x1="93.4" y1="0.8" x2="93.4" y2="499.2"/>
		<line class="st1" x1="1186.4" y1="0" x2="1186.4" y2="499.2"/>
		<polyline class="st1" points="93.1,68.2 133.7,105.8 133.7,397.8 93.1,445.5 		"/>
		<polyline class="st1" points="1185.9,75.5 1151.1,113 1151.1,405 1185.9,452.7 		"/>
		<line class="st2" x1="246.1" y1="0.8" x2="246.1" y2="499.2"/>
		<line class="st3" x1="246.1" y1="0.8" x2="246.1" y2="6.8"/>
		<line class="st4" x1="246.1" y1="18.6" x2="246.1" y2="487.3"/>
		<line class="st3" x1="246.1" y1="493.2" x2="246.1" y2="499.2"/>
		<line class="st2" x1="1032.6" y1="0.8" x2="1032.6" y2="499.2"/>
		<line class="st3" x1="1032.6" y1="0.8" x2="1032.6" y2="6.8"/>
		<line class="st4" x1="1032.6" y1="18.6" x2="1032.6" y2="487.3"/>
		<line class="st3" x1="1032.6" y1="493.3" x2="1032.6" y2="499.2"/>
	</g>
</g>
<g id="レイヤー_2_00000116234293368664335600000010453327428006567826_">
	<g id="レイヤー_1-2_00000034077001710740181870000008551751719744500871_">
		<rect y="0" class="st0" width="1280" height="500.8"/>
		<line class="st1" x1="93.4" y1="0" x2="93.4" y2="500"/>
		<line class="st1" x1="1186.4" y1="-0.8" x2="1186.4" y2="500"/>
		<polyline class="st1" points="93.1,67.7 133.7,105.4 133.7,398.2 93.1,446.1 		"/>
		<polyline class="st1" points="1185.9,74.9 1151.1,112.6 1151.1,405.5 1185.9,453.3 		"/>
		<line class="st2" x1="246.1" y1="0" x2="246.1" y2="500"/>
		<line class="st3" x1="246.1" y1="0" x2="246.1" y2="6"/>
		<line class="st4" x1="246.1" y1="17.9" x2="246.1" y2="488"/>
		<line class="st3" x1="246.1" y1="494" x2="246.1" y2="500"/>
		<line class="st2" x1="1032.6" y1="0" x2="1032.6" y2="500"/>
		<line class="st3" x1="1032.6" y1="0" x2="1032.6" y2="6"/>
		<line class="st4" x1="1032.6" y1="17.9" x2="1032.6" y2="488"/>
		<line class="st3" x1="1032.6" y1="494" x2="1032.6" y2="500"/>
	</g>
</g>
<rect x="199.6" y="497.1" class="st5" width="93" height="3.7"/>
<rect x="986.1" y="497.1" class="st5" width="93" height="3.7"/>
<rect x="1182.9" y="496.2" class="st5" width="7" height="4.6"/>
<rect x="89.9" y="496.2" class="st5" width="7" height="4.6"/>
</svg>
