<svg xmlns="http://www.w3.org/2000/svg" viewBox="0 0 91.73 88.03"><defs><style>.cls-1,.cls-3{fill:#9fa0a0;}.cls-2{fill:#2f3030;}.cls-3{stroke:#9fa0a0;stroke-miterlimit:10;}</style></defs><g id="レイヤー_2" data-name="レイヤー 2"><g id="レイヤー_1-2" data-name="レイヤー 1"><circle class="cls-1" cx="45.25" cy="43.84" r="35.99"/><circle class="cls-2" cx="45.38" cy="44.23" r="28.1"/><circle class="cls-3" cx="45.05" cy="43.77" r="9.82"/><path class="cls-1" d="M21.85,28.62,37.14,41.06s3.5-6.17,8.6-6.45L37.36,14.38S23.16,19.38,21.85,28.62Z"/><path class="cls-1" d="M37,71l7.41-17.77S37.67,51.71,36,47L19.38,60.46S28,72.36,37,71Z"/><path class="cls-1" d="M72.15,34.87l-18.63,4.9S56,46,53.15,50.08l20.27,4.83S78.3,41.08,72.15,34.87Z"/><polyline class="cls-1" points="13.19 28.91 5.25 20.98 10.21 13.54 20.13 18.33"/><polyline class="cls-1" points="25.48 16.7 21.91 6.06 29.66 1.61 36.41 10.31"/><polyline class="cls-1" points="45.14 10.3 49.6 0 58.34 1.88 57.53 12.87"/><polyline class="cls-1" points="66.02 16.35 75.12 9.79 81.67 15.87 75.35 24.9"/><polyline class="cls-1" points="77.23 59.27 85 67.37 79.88 74.71 70.06 69.71"/><polyline class="cls-1" points="80.79 37.82 91.73 40.34 91.46 49.28 80.51 50.47"/><polyline class="cls-1" points="61.28 72.34 65.05 82.92 57.38 87.51 50.48 78.93"/><polyline class="cls-1" points="37.35 78.78 30.99 88.03 22.77 84.51 25.68 73.88"/><polyline class="cls-1" points="10.99 50.26 0 47.96 0.08 39.02 11 37.6"/><polyline class="cls-1" points="20.36 69.61 9.97 73.86 5.03 66.41 13.29 59.12"/></g></g></svg>