<svg xmlns="http://www.w3.org/2000/svg" viewBox="0 0 1617.24 869.93"><defs><style>.cls-1{fill:#006934;}.cls-2{fill:#0b2d15;}.cls-3{fill:#132e28;}.cls-4{fill:#231815;}.cls-5{fill:#365a37;}.cls-6{fill:#0a3a16;}.cls-7{fill:#fff;}</style></defs><g id="レイヤー_2" data-name="レイヤー 2"><g id="レイヤー_1-2" data-name="レイヤー 1"><rect class="cls-1" x="378.43" y="254.56" width="164.71" height="43.56"/><rect class="cls-2" x="510.48" y="235.51" width="164.71" height="43.56"/><rect class="cls-3" x="329.43" y="285.87" width="164.71" height="43.56"/><rect class="cls-4" x="469.64" y="298.13" width="164.71" height="43.56"/><rect class="cls-5" x="588.07" y="260.01" width="164.71" height="43.56"/><rect class="cls-6" x="439.69" y="272.26" width="164.71" height="43.56"/><rect class="cls-1" x="587.39" y="236.87" width="164.71" height="43.56"/><rect class="cls-2" x="719.43" y="217.81" width="164.71" height="43.56"/><rect class="cls-3" x="538.38" y="268.18" width="164.71" height="43.56"/><rect class="cls-4" x="678.6" y="280.43" width="164.71" height="43.56"/><rect class="cls-5" x="797.03" y="242.31" width="164.71" height="43.56"/><rect class="cls-6" x="648.65" y="254.56" width="164.71" height="43.56"/><rect class="cls-1" x="401.58" y="323.99" width="164.71" height="43.56"/><rect class="cls-2" x="533.62" y="304.93" width="164.71" height="43.56"/><rect class="cls-3" x="352.57" y="355.3" width="164.71" height="43.56"/><rect class="cls-4" x="492.78" y="367.55" width="164.71" height="43.56"/><rect class="cls-5" x="611.21" y="329.43" width="164.71" height="43.56"/><rect class="cls-6" x="462.83" y="341.69" width="164.71" height="43.56"/><rect class="cls-1" x="142.93" y="110.27" width="164.71" height="43.56"/><rect class="cls-2" x="274.98" y="91.21" width="164.71" height="43.56"/><rect class="cls-3" x="93.93" y="141.58" width="164.71" height="43.56"/><rect class="cls-4" x="234.14" y="153.83" width="164.71" height="43.56"/><rect class="cls-5" x="352.57" y="115.71" width="164.71" height="43.56"/><rect class="cls-6" x="204.19" y="127.97" width="164.71" height="43.56"/><rect class="cls-1" x="317.18" y="555.41" width="164.71" height="43.56"/><rect class="cls-2" x="449.22" y="536.35" width="164.71" height="43.56"/><rect class="cls-3" x="268.17" y="586.72" width="164.71" height="43.56"/><rect class="cls-4" x="408.38" y="598.97" width="164.71" height="43.56"/><rect class="cls-5" x="526.81" y="560.85" width="164.71" height="43.56"/><rect class="cls-6" x="378.43" y="573.1" width="164.71" height="43.56"/><rect class="cls-1" x="356.65" y="194.67" width="164.71" height="43.56"/><rect class="cls-2" x="488.7" y="175.61" width="164.71" height="43.56"/><rect class="cls-3" x="307.65" y="225.98" width="164.71" height="43.56"/><rect class="cls-4" x="447.86" y="238.23" width="164.71" height="43.56"/><rect class="cls-5" x="566.29" y="200.11" width="164.71" height="43.56"/><rect class="cls-6" x="417.91" y="212.36" width="164.71" height="43.56"/><rect class="cls-1" x="382.52" y="112.99" width="164.71" height="43.56"/><rect class="cls-2" x="514.56" y="93.93" width="164.71" height="43.56"/><rect class="cls-3" x="333.51" y="144.3" width="164.71" height="43.56"/><rect class="cls-4" x="473.72" y="156.55" width="164.71" height="43.56"/><rect class="cls-5" x="592.15" y="118.44" width="164.71" height="43.56"/><rect class="cls-6" x="443.78" y="130.69" width="164.71" height="43.56"/><rect class="cls-1" x="132.04" y="306.29" width="164.71" height="43.56"/><rect class="cls-2" x="264.09" y="287.24" width="164.71" height="43.56"/><rect class="cls-3" x="83.04" y="337.6" width="164.71" height="43.56"/><rect class="cls-4" x="223.25" y="349.85" width="164.71" height="43.56"/><rect class="cls-5" x="341.68" y="311.74" width="164.71" height="43.56"/><rect class="cls-6" x="193.3" y="323.99" width="164.71" height="43.56"/><rect class="cls-1" x="276.34" y="420.64" width="164.71" height="43.56"/><rect class="cls-2" x="408.38" y="401.58" width="164.71" height="43.56"/><rect class="cls-3" x="227.33" y="451.95" width="164.71" height="43.56"/><rect class="cls-4" x="367.54" y="464.2" width="164.71" height="43.56"/><rect class="cls-5" x="485.98" y="426.09" width="164.71" height="43.56"/><rect class="cls-6" x="337.6" y="438.34" width="164.71" height="43.56"/><rect class="cls-1" x="637.76" y="302.21" width="164.71" height="43.56"/><rect class="cls-2" x="769.8" y="283.15" width="164.71" height="43.56"/><rect class="cls-3" x="588.75" y="333.52" width="164.71" height="43.56"/><rect class="cls-4" x="728.96" y="345.77" width="164.71" height="43.56"/><rect class="cls-5" x="847.39" y="307.65" width="164.71" height="43.56"/><rect class="cls-6" x="699.02" y="319.91" width="164.71" height="43.56"/><rect class="cls-1" x="784.78" y="170.17" width="164.71" height="43.56"/><rect class="cls-2" x="916.82" y="151.11" width="164.71" height="43.56"/><rect class="cls-3" x="735.77" y="201.47" width="164.71" height="43.56"/><rect class="cls-4" x="875.98" y="213.73" width="164.71" height="43.56"/><rect class="cls-5" x="994.41" y="175.61" width="164.71" height="43.56"/><rect class="cls-6" x="846.03" y="187.86" width="164.71" height="43.56"/><rect class="cls-1" x="901.85" y="103.46" width="164.71" height="43.56"/><rect class="cls-2" x="1033.89" y="84.41" width="164.71" height="43.56"/><rect class="cls-3" x="852.84" y="134.77" width="164.71" height="43.56"/><rect class="cls-4" x="993.05" y="147.02" width="164.71" height="43.56"/><rect class="cls-5" x="1111.48" y="108.91" width="164.71" height="43.56"/><rect class="cls-6" x="963.1" y="121.16" width="164.71" height="43.56"/><rect class="cls-1" x="1140.07" y="141.58" width="164.71" height="43.56"/><rect class="cls-2" x="1272.11" y="122.52" width="164.71" height="43.56"/><rect class="cls-3" x="1091.06" y="172.89" width="164.71" height="43.56"/><rect class="cls-4" x="1231.27" y="185.14" width="164.71" height="43.56"/><rect class="cls-5" x="1349.7" y="147.02" width="164.71" height="43.56"/><rect class="cls-6" x="1201.33" y="159.28" width="164.71" height="43.56"/><rect class="cls-1" x="160.63" y="179.69" width="164.71" height="43.56"/><rect class="cls-2" x="292.67" y="160.64" width="164.71" height="43.56"/><rect class="cls-3" x="111.62" y="211" width="164.71" height="43.56"/><rect class="cls-4" x="251.84" y="223.26" width="164.71" height="43.56"/><rect class="cls-5" x="370.27" y="185.14" width="164.71" height="43.56"/><rect class="cls-6" x="221.89" y="197.39" width="164.71" height="43.56"/><rect class="cls-1" x="1167.97" y="532.26" width="164.71" height="43.56"/><rect class="cls-2" x="1300.02" y="513.21" width="164.71" height="43.56"/><rect class="cls-3" x="1118.97" y="563.57" width="164.71" height="43.56"/><rect class="cls-4" x="1259.18" y="575.83" width="164.71" height="43.56"/><rect class="cls-5" x="1377.61" y="537.71" width="164.71" height="43.56"/><rect class="cls-6" x="1229.23" y="549.96" width="164.71" height="43.56"/><rect class="cls-1" x="935.2" y="451.95" width="164.71" height="43.56"/><rect class="cls-2" x="1067.24" y="432.89" width="164.71" height="43.56"/><rect class="cls-3" x="886.19" y="483.26" width="164.71" height="43.56"/><rect class="cls-4" x="1026.4" y="495.51" width="164.71" height="43.56"/><rect class="cls-5" x="1144.83" y="457.39" width="164.71" height="43.56"/><rect class="cls-6" x="996.45" y="469.65" width="164.71" height="43.56"/><rect class="cls-1" x="160.63" y="461.48" width="164.71" height="43.56"/><rect class="cls-2" x="292.67" y="442.42" width="164.71" height="43.56"/><rect class="cls-3" x="111.62" y="492.79" width="164.71" height="43.56"/><rect class="cls-4" x="251.84" y="505.04" width="164.71" height="43.56"/><rect class="cls-5" x="370.27" y="466.92" width="164.71" height="43.56"/><rect class="cls-6" x="221.89" y="479.17" width="164.71" height="43.56"/><rect class="cls-1" x="982.84" y="292.68" width="164.71" height="43.56"/><rect class="cls-2" x="1114.88" y="273.62" width="164.71" height="43.56"/><rect class="cls-3" x="933.84" y="323.99" width="164.71" height="43.56"/><rect class="cls-4" x="1074.05" y="336.24" width="164.71" height="43.56"/><rect class="cls-5" x="1192.48" y="298.13" width="164.71" height="43.56"/><rect class="cls-6" x="1044.1" y="310.38" width="164.71" height="43.56"/><rect class="cls-1" x="1004.62" y="216.45" width="164.71" height="43.56"/><rect class="cls-2" x="1136.67" y="197.39" width="164.71" height="43.56"/><rect class="cls-3" x="955.62" y="247.76" width="164.71" height="43.56"/><rect class="cls-4" x="1095.83" y="260.01" width="164.71" height="43.56"/><rect class="cls-5" x="1214.26" y="221.89" width="164.71" height="43.56"/><rect class="cls-6" x="1065.88" y="234.15" width="164.71" height="43.56"/><rect class="cls-1" x="49.01" y="247.76" width="164.71" height="43.56"/><rect class="cls-2" x="181.05" y="228.7" width="164.71" height="43.56"/><rect class="cls-3" y="279.07" width="164.71" height="43.56"/><rect class="cls-4" x="140.21" y="291.32" width="164.71" height="43.56"/><rect class="cls-5" x="258.64" y="253.2" width="164.71" height="43.56"/><rect class="cls-6" x="110.26" y="265.45" width="164.71" height="43.56"/><rect class="cls-1" x="882.11" y="520.01" width="164.71" height="43.56"/><rect class="cls-2" x="1014.15" y="500.96" width="164.71" height="43.56"/><rect class="cls-3" x="833.1" y="551.32" width="164.71" height="43.56"/><rect class="cls-4" x="973.31" y="563.57" width="164.71" height="43.56"/><rect class="cls-5" x="1091.74" y="525.46" width="164.71" height="43.56"/><rect class="cls-6" x="943.36" y="537.71" width="164.71" height="43.56"/><rect class="cls-1" x="172.88" y="569.02" width="164.71" height="43.56"/><rect class="cls-2" x="304.93" y="549.96" width="164.71" height="43.56"/><rect class="cls-3" x="123.88" y="600.33" width="164.71" height="43.56"/><rect class="cls-4" x="264.09" y="612.58" width="164.71" height="43.56"/><rect class="cls-5" x="382.52" y="574.46" width="164.71" height="43.56"/><rect class="cls-6" x="234.14" y="586.72" width="164.71" height="43.56"/><rect class="cls-1" x="450.18" y="300.78" width="164.71" height="43.56" transform="translate(855.69 -209.61) rotate(90.06)"/><rect class="cls-2" x="469.09" y="432.85" width="164.71" height="43.56" transform="translate(1006.68 -96.31) rotate(90.06)"/><rect class="cls-3" x="418.92" y="251.74" width="164.71" height="43.56" transform="translate(775.36 -227.45) rotate(90.06)"/><rect class="cls-4" x="406.51" y="391.94" width="164.71" height="43.56" transform="translate(903.13 -74.69) rotate(90.06)"/><rect class="cls-5" x="444.5" y="510.41" width="164.71" height="43.56" transform="translate(1059.63 5.93) rotate(90.06)"/><rect class="cls-6" x="432.41" y="362.02" width="164.71" height="43.56" transform="translate(899.14 -130.54) rotate(90.06)"/><rect class="cls-1" x="874.73" y="295.2" width="164.71" height="43.56" transform="translate(1275.13 -639.76) rotate(90.06)"/><rect class="cls-2" x="893.64" y="427.26" width="164.71" height="43.56" transform="translate(1426.12 -526.46) rotate(90.06)"/><rect class="cls-3" x="843.48" y="246.16" width="164.71" height="43.56" transform="translate(1194.8 -657.6) rotate(90.06)"/><rect class="cls-4" x="831.07" y="386.36" width="164.71" height="43.56" transform="translate(1322.57 -504.84) rotate(90.06)"/><rect class="cls-5" x="869.05" y="504.83" width="164.71" height="43.56" transform="translate(1479.07 -424.22) rotate(90.06)"/><rect class="cls-6" x="856.97" y="356.44" width="164.71" height="43.56" transform="translate(1318.58 -560.69) rotate(90.06)"/><rect class="cls-1" x="379.91" y="556.14" width="164.71" height="43.56" transform="translate(1040.7 116.29) rotate(90.06)"/><rect class="cls-2" x="398.82" y="688.2" width="164.71" height="43.56" transform="translate(1191.7 229.59) rotate(90.06)"/><rect class="cls-3" x="348.66" y="507.1" width="164.71" height="43.56" transform="translate(960.37 98.45) rotate(90.06)"/><rect class="cls-4" x="336.25" y="647.29" width="164.71" height="43.56" transform="translate(1088.15 251.21) rotate(90.06)"/><rect class="cls-5" x="374.24" y="765.77" width="164.71" height="43.56" transform="translate(1244.65 331.83) rotate(90.06)"/><rect class="cls-6" x="362.15" y="617.37" width="164.71" height="43.56" transform="translate(1084.15 195.36) rotate(90.06)"/><rect class="cls-1" x="698.84" y="556.14" width="164.71" height="43.56" transform="translate(1359.98 -202.64) rotate(90.06)"/><rect class="cls-2" x="717.75" y="688.2" width="164.71" height="43.56" transform="translate(1510.98 -89.34) rotate(90.06)"/><rect class="cls-3" x="667.58" y="507.1" width="164.71" height="43.56" transform="translate(1279.65 -220.48) rotate(90.06)"/><rect class="cls-4" x="655.18" y="647.29" width="164.71" height="43.56" transform="translate(1407.43 -67.72) rotate(90.06)"/><rect class="cls-5" x="693.16" y="765.77" width="164.71" height="43.56" transform="translate(1563.93 12.9) rotate(90.06)"/><rect class="cls-6" x="681.07" y="617.37" width="164.71" height="43.56" transform="translate(1403.43 -123.57) rotate(90.06)"/><rect class="cls-1" x="302.6" y="438.23" width="164.71" height="43.56" transform="translate(845.39 75.57) rotate(90.06)"/><rect class="cls-2" x="321.51" y="570.3" width="164.71" height="43.56" transform="translate(996.39 188.87) rotate(90.06)"/><rect class="cls-3" x="271.34" y="389.19" width="164.71" height="43.56" transform="translate(765.06 57.73) rotate(90.06)"/><rect class="cls-4" x="258.94" y="529.39" width="164.71" height="43.56" transform="translate(892.84 210.49) rotate(90.06)"/><rect class="cls-5" x="296.92" y="647.86" width="164.71" height="43.56" transform="translate(1049.34 291.11) rotate(90.06)"/><rect class="cls-6" x="284.83" y="499.47" width="164.71" height="43.56" transform="translate(888.85 154.64) rotate(90.06)"/><rect class="cls-1" x="1023.56" y="279.74" width="164.71" height="43.56" transform="translate(1408.66 -804.07) rotate(90.06)"/><rect class="cls-2" x="1042.47" y="411.8" width="164.71" height="43.56" transform="translate(1559.66 -690.77) rotate(90.06)"/><rect class="cls-3" x="992.31" y="230.69" width="164.71" height="43.56" transform="translate(1328.33 -821.91) rotate(90.06)"/><rect class="cls-4" x="979.9" y="370.89" width="164.71" height="43.56" transform="translate(1456.11 -669.15) rotate(90.06)"/><rect class="cls-5" x="1017.89" y="489.37" width="164.71" height="43.56" transform="translate(1612.61 -588.53) rotate(90.06)"/><rect class="cls-6" x="1005.8" y="340.97" width="164.71" height="43.56" transform="translate(1452.11 -725) rotate(90.06)"/><rect class="cls-1" x="1201.39" y="328.06" width="164.71" height="43.56" transform="translate(1635.01 -933.52) rotate(90.06)"/><rect class="cls-2" x="1220.3" y="460.12" width="164.71" height="43.56" transform="translate(1786 -820.22) rotate(90.06)"/><rect class="cls-3" x="1170.13" y="279.02" width="164.71" height="43.56" transform="translate(1554.67 -951.36) rotate(90.06)"/><rect class="cls-4" x="1157.73" y="419.21" width="164.71" height="43.56" transform="translate(1682.45 -798.6) rotate(90.06)"/><rect class="cls-5" x="1195.71" y="537.69" width="164.71" height="43.56" transform="translate(1838.95 -717.98) rotate(90.06)"/><rect class="cls-6" x="1183.62" y="389.29" width="164.71" height="43.56" transform="translate(1678.46 -854.45) rotate(90.06)"/><rect class="cls-1" x="233.01" y="302.93" width="164.71" height="43.56" transform="translate(640.43 9.7) rotate(90.06)"/><rect class="cls-2" x="251.93" y="434.99" width="164.71" height="43.56" transform="translate(791.43 123) rotate(90.06)"/><rect class="cls-3" x="201.76" y="253.89" width="164.71" height="43.56" transform="translate(560.1 -8.14) rotate(90.06)"/><rect class="cls-4" x="189.35" y="394.09" width="164.71" height="43.56" transform="translate(687.88 144.62) rotate(90.06)"/><rect class="cls-5" x="227.34" y="512.56" width="164.71" height="43.56" transform="translate(844.38 225.24) rotate(90.06)"/><rect class="cls-6" x="215.25" y="364.17" width="164.71" height="43.56" transform="translate(683.88 88.77) rotate(90.06)"/><rect class="cls-1" x="736.24" y="325.91" width="164.71" height="43.56" transform="translate(1167.2 -470.52) rotate(90.06)"/><rect class="cls-2" x="755.15" y="457.98" width="164.71" height="43.56" transform="translate(1318.19 -357.22) rotate(90.06)"/><rect class="cls-3" x="704.99" y="276.87" width="164.71" height="43.56" transform="translate(1086.87 -488.36) rotate(90.06)"/><rect class="cls-4" x="692.58" y="417.07" width="164.71" height="43.56" transform="translate(1214.64 -335.6) rotate(90.06)"/><rect class="cls-5" x="730.57" y="535.54" width="164.71" height="43.56" transform="translate(1371.14 -254.98) rotate(90.06)"/><rect class="cls-6" x="718.48" y="387.15" width="164.71" height="43.56" transform="translate(1210.65 -391.45) rotate(90.06)"/><rect class="cls-1" x="312.94" y="238.93" width="164.71" height="43.56" transform="translate(656.45 -134.3) rotate(90.06)"/><rect class="cls-2" x="331.85" y="371" width="164.71" height="43.56" transform="translate(807.44 -21) rotate(90.06)"/><rect class="cls-3" x="281.69" y="189.89" width="164.71" height="43.56" transform="translate(576.12 -152.14) rotate(90.06)"/><rect class="cls-4" x="269.28" y="330.09" width="164.71" height="43.56" transform="translate(703.89 0.62) rotate(90.06)"/><rect class="cls-5" x="307.26" y="448.56" width="164.71" height="43.56" transform="translate(860.39 81.24) rotate(90.06)"/><rect class="cls-6" x="295.18" y="300.17" width="164.71" height="43.56" transform="translate(699.9 -55.23) rotate(90.06)"/><rect class="cls-1" x="1403.46" y="236.96" width="164.71" height="43.56" transform="translate(2971.35 519.12) rotate(-179.94)"/><rect class="cls-2" x="1271.4" y="255.87" width="164.71" height="43.56" transform="translate(2707.2 556.8) rotate(-179.94)"/><rect class="cls-3" x="1452.5" y="205.7" width="164.71" height="43.56" transform="translate(3069.47 456.67) rotate(-179.94)"/><rect class="cls-4" x="1312.3" y="193.3" width="164.71" height="43.56" transform="translate(2789.08 431.7) rotate(-179.94)"/><rect class="cls-5" x="1193.83" y="231.28" width="164.71" height="43.56" transform="translate(2552.1 507.53) rotate(-179.94)"/><rect class="cls-6" x="1342.22" y="219.19" width="164.71" height="43.56" transform="translate(2848.89 483.52) rotate(-179.94)"/><rect class="cls-1" x="1121.68" y="385.34" width="164.71" height="43.56" transform="translate(2407.62 815.57) rotate(-179.94)"/><rect class="cls-2" x="989.61" y="404.25" width="164.71" height="43.56" transform="translate(2143.47 853.24) rotate(-179.94)"/><rect class="cls-3" x="1170.72" y="354.08" width="164.71" height="43.56" transform="translate(2505.73 753.11) rotate(-179.94)"/><rect class="cls-4" x="1030.52" y="341.67" width="164.71" height="43.56" transform="translate(2225.35 728.14) rotate(-179.94)"/><rect class="cls-5" x="912.05" y="379.66" width="164.71" height="43.56" transform="translate(1988.36 803.98) rotate(-179.94)"/><rect class="cls-6" x="1060.44" y="367.57" width="164.71" height="43.56" transform="translate(2285.16 779.97) rotate(-179.94)"/><rect class="cls-1" x="292.66" y="539.16" width="164.71" height="43.56" transform="translate(749.41 1122.3) rotate(-179.94)"/><rect class="cls-2" x="160.6" y="558.07" width="164.71" height="43.56" transform="translate(485.26 1159.97) rotate(-179.94)"/><rect class="cls-3" x="341.7" y="507.91" width="164.71" height="43.56" transform="translate(847.53 1059.84) rotate(-179.94)"/><rect class="cls-4" x="201.5" y="495.5" width="164.71" height="43.56" transform="translate(567.15 1034.87) rotate(-179.94)"/><rect class="cls-5" x="83.03" y="533.48" width="164.71" height="43.56" transform="translate(330.16 1110.71) rotate(-179.94)"/><rect class="cls-6" x="231.42" y="521.4" width="164.71" height="43.56" transform="translate(626.96 1086.7) rotate(-179.94)"/><rect class="cls-1" x="251.82" y="405.76" width="164.71" height="43.56" transform="translate(667.89 855.44) rotate(-179.94)"/><rect class="cls-2" x="119.76" y="424.67" width="164.71" height="43.56" transform="translate(403.73 893.12) rotate(-179.94)"/><rect class="cls-3" x="300.86" y="374.5" width="164.71" height="43.56" transform="translate(766 792.99) rotate(-179.94)"/><rect class="cls-4" x="160.67" y="362.09" width="164.71" height="43.56" transform="translate(485.62 768.02) rotate(-179.94)"/><rect class="cls-5" x="42.19" y="400.08" width="164.71" height="43.56" transform="translate(248.63 843.85) rotate(-179.94)"/><rect class="cls-6" x="190.58" y="387.99" width="164.71" height="43.56" transform="translate(545.43 819.84) rotate(-179.94)"/><rect class="cls-1" x="509.1" y="432.98" width="164.71" height="43.56" transform="translate(1182.42 910.18) rotate(-179.94)"/><rect class="cls-2" x="377.04" y="451.89" width="164.71" height="43.56" transform="translate(918.27 947.85) rotate(-179.94)"/><rect class="cls-3" x="558.14" y="401.73" width="164.71" height="43.56" transform="translate(1280.53 847.72) rotate(-179.94)"/><rect class="cls-4" x="417.95" y="389.32" width="164.71" height="43.56" transform="translate(1000.15 822.75) rotate(-179.94)"/><rect class="cls-5" x="299.47" y="427.3" width="164.71" height="43.56" transform="translate(763.16 898.59) rotate(-179.94)"/><rect class="cls-6" x="447.87" y="415.22" width="164.71" height="43.56" transform="translate(1059.96 874.58) rotate(-179.94)"/><rect class="cls-1" x="825.58" y="377.02" width="164.71" height="43.56" transform="translate(1815.43 798.62) rotate(-179.94)"/><rect class="cls-2" x="693.51" y="395.94" width="164.71" height="43.56" transform="translate(1551.28 836.29) rotate(-179.94)"/><rect class="cls-3" x="874.62" y="345.77" width="164.71" height="43.56" transform="translate(1913.55 736.16) rotate(-179.94)"/><rect class="cls-4" x="734.42" y="333.36" width="164.71" height="43.56" transform="translate(1633.16 711.19) rotate(-179.94)"/><rect class="cls-5" x="615.95" y="371.35" width="164.71" height="43.56" transform="translate(1396.18 787.03) rotate(-179.94)"/><rect class="cls-6" x="764.34" y="359.26" width="164.71" height="43.56" transform="translate(1692.97 763.02) rotate(-179.94)"/><rect class="cls-1" x="577.83" y="509.07" width="164.71" height="43.56" transform="translate(1319.78 1062.43) rotate(-179.94)"/><rect class="cls-2" x="445.76" y="527.98" width="164.71" height="43.56" transform="translate(1055.63 1100.11) rotate(-179.94)"/><rect class="cls-3" x="626.87" y="477.81" width="164.71" height="43.56" transform="translate(1417.9 999.97) rotate(-179.94)"/><rect class="cls-4" x="486.67" y="465.41" width="164.71" height="43.56" transform="translate(1137.51 975) rotate(-179.94)"/><rect class="cls-5" x="368.2" y="503.39" width="164.71" height="43.56" transform="translate(900.53 1050.84) rotate(-179.94)"/><rect class="cls-6" x="516.59" y="491.3" width="164.71" height="43.56" transform="translate(1197.32 1026.83) rotate(-179.94)"/><rect class="cls-1" x="997.8" y="254.65" width="164.71" height="43.56" transform="translate(2160.01 554.06) rotate(-179.94)"/><rect class="cls-2" x="865.74" y="273.57" width="164.71" height="43.56" transform="translate(1895.86 591.74) rotate(-179.94)"/><rect class="cls-3" x="1046.84" y="223.4" width="164.71" height="43.56" transform="translate(2258.13 491.61) rotate(-179.94)"/><rect class="cls-4" x="906.64" y="210.99" width="164.71" height="43.56" transform="translate(1977.74 466.64) rotate(-179.94)"/><rect class="cls-5" x="788.17" y="248.98" width="164.71" height="43.56" transform="translate(1740.76 542.48) rotate(-179.94)"/><rect class="cls-6" x="936.56" y="236.89" width="164.71" height="43.56" transform="translate(2037.55 518.47) rotate(-179.94)"/><rect class="cls-1" x="1374.87" y="495.6" width="164.71" height="43.56" transform="translate(2913.89 1036.37) rotate(-179.94)"/><rect class="cls-2" x="1242.81" y="514.51" width="164.71" height="43.56" transform="translate(2649.74 1074.05) rotate(-179.94)"/><rect class="cls-3" x="1423.92" y="464.34" width="164.71" height="43.56" transform="translate(3012.01 973.92) rotate(-179.94)"/><rect class="cls-4" x="1283.72" y="451.94" width="164.71" height="43.56" transform="translate(2731.62 948.95) rotate(-179.94)"/><rect class="cls-5" x="1165.24" y="489.92" width="164.71" height="43.56" transform="translate(2494.64 1024.79) rotate(-179.94)"/><rect class="cls-6" x="1313.64" y="477.83" width="164.71" height="43.56" transform="translate(2791.43 1000.78) rotate(-179.94)"/><rect class="cls-1" x="786.8" y="526.91" width="164.71" height="43.56" transform="translate(1737.71 1098.34) rotate(-179.94)"/><rect class="cls-2" x="654.74" y="545.82" width="164.71" height="43.56" transform="translate(1473.56 1136.02) rotate(-179.94)"/><rect class="cls-3" x="835.84" y="495.65" width="164.71" height="43.56" transform="translate(1835.83 1035.89) rotate(-179.94)"/><rect class="cls-4" x="695.65" y="483.25" width="164.71" height="43.56" transform="translate(1555.45 1010.92) rotate(-179.94)"/><rect class="cls-5" x="577.17" y="521.23" width="164.71" height="43.56" transform="translate(1318.46 1086.75) rotate(-179.94)"/><rect class="cls-6" x="725.57" y="509.14" width="164.71" height="43.56" transform="translate(1615.26 1062.74) rotate(-179.94)"/><rect class="cls-1" x="608.49" y="142.94" width="164.71" height="43.56"/><rect class="cls-2" x="740.53" y="123.88" width="164.71" height="43.56"/><rect class="cls-3" x="559.48" y="174.25" width="164.71" height="43.56"/><rect class="cls-4" x="699.7" y="186.5" width="164.71" height="43.56"/><rect class="cls-5" x="818.13" y="148.39" width="164.71" height="43.56"/><rect class="cls-6" x="669.75" y="160.64" width="164.71" height="43.56"/><rect class="cls-1" x="888.91" y="579.91" width="164.71" height="43.56"/><rect class="cls-2" x="1020.96" y="560.85" width="164.71" height="43.56"/><rect class="cls-3" x="839.91" y="611.22" width="164.71" height="43.56"/><rect class="cls-4" x="980.12" y="623.47" width="164.71" height="43.56"/><rect class="cls-5" x="1098.55" y="585.35" width="164.71" height="43.56"/><rect class="cls-6" x="950.17" y="597.61" width="164.71" height="43.56"/><rect class="cls-1" x="598.96" y="566.3" width="164.71" height="43.56"/><rect class="cls-2" x="731" y="547.24" width="164.71" height="43.56"/><rect class="cls-3" x="549.96" y="597.61" width="164.71" height="43.56"/><rect class="cls-4" x="690.17" y="609.86" width="164.71" height="43.56"/><rect class="cls-5" x="808.6" y="571.74" width="164.71" height="43.56"/><rect class="cls-6" x="660.22" y="583.99" width="164.71" height="43.56"/><rect class="cls-1" x="1196.56" y="387.97" width="164.71" height="43.56"/><rect class="cls-2" x="1328.6" y="368.91" width="164.71" height="43.56"/><rect class="cls-3" x="1147.56" y="419.28" width="164.71" height="43.56"/><rect class="cls-4" x="1287.77" y="431.53" width="164.71" height="43.56"/><rect class="cls-5" x="1406.2" y="393.41" width="164.71" height="43.56"/><rect class="cls-6" x="1257.82" y="405.67" width="164.71" height="43.56"/><rect class="cls-1" x="1230.59" y="294.04" width="164.71" height="43.56"/><rect class="cls-2" x="1362.64" y="274.98" width="164.71" height="43.56"/><rect class="cls-3" x="1181.59" y="325.35" width="164.71" height="43.56"/><rect class="cls-4" x="1321.8" y="337.6" width="164.71" height="43.56"/><rect class="cls-5" x="1440.23" y="299.49" width="164.71" height="43.56"/><rect class="cls-6" x="1291.85" y="311.74" width="164.71" height="43.56"/><rect class="cls-1" x="698.33" y="409.75" width="164.71" height="43.56"/><rect class="cls-2" x="830.38" y="390.69" width="164.71" height="43.56"/><rect class="cls-3" x="649.33" y="441.06" width="164.71" height="43.56"/><rect class="cls-4" x="789.54" y="453.31" width="164.71" height="43.56"/><rect class="cls-5" x="907.97" y="415.2" width="164.71" height="43.56"/><rect class="cls-6" x="759.59" y="427.45" width="164.71" height="43.56"/><rect class="cls-1" x="1210.17" y="107.55" width="164.71" height="43.56"/><rect class="cls-2" x="1342.22" y="88.49" width="164.71" height="43.56"/><rect class="cls-3" x="1161.17" y="138.86" width="164.71" height="43.56"/><rect class="cls-4" x="1301.38" y="151.11" width="164.71" height="43.56"/><rect class="cls-5" x="1419.81" y="112.99" width="164.71" height="43.56"/><rect class="cls-6" x="1271.43" y="125.24" width="164.71" height="43.56"/><rect class="cls-1" x="1187.03" y="586.72" width="164.71" height="43.56"/><rect class="cls-2" x="1319.08" y="567.66" width="164.71" height="43.56"/><rect class="cls-3" x="1138.03" y="618.03" width="164.71" height="43.56"/><rect class="cls-4" x="1278.24" y="630.28" width="164.71" height="43.56"/><rect class="cls-5" x="1396.67" y="592.16" width="164.71" height="43.56"/><rect class="cls-6" x="1248.29" y="604.41" width="164.71" height="43.56"/><rect class="cls-1" x="874.73" y="312.59" width="164.71" height="43.56" transform="translate(1292.52 -622.34) rotate(90.06)"/><rect class="cls-2" x="893.64" y="444.66" width="164.71" height="43.56" transform="translate(1443.52 -509.04) rotate(90.06)"/><rect class="cls-3" x="843.48" y="263.55" width="164.71" height="43.56" transform="translate(1212.19 -640.18) rotate(90.06)"/><rect class="cls-4" x="831.07" y="403.75" width="164.71" height="43.56" transform="translate(1339.97 -487.42) rotate(90.06)"/><rect class="cls-5" x="869.05" y="522.22" width="164.71" height="43.56" transform="translate(1496.47 -406.8) rotate(90.06)"/><rect class="cls-6" x="856.97" y="373.83" width="164.71" height="43.56" transform="translate(1335.98 -543.27) rotate(90.06)"/><rect class="cls-1" x="548.07" y="306.8" width="164.71" height="43.56" transform="translate(959.71 -301.49) rotate(90.06)"/><rect class="cls-2" x="566.99" y="438.86" width="164.71" height="43.56" transform="translate(1110.7 -188.19) rotate(90.06)"/><rect class="cls-3" x="516.82" y="257.75" width="164.71" height="43.56" transform="translate(879.38 -319.33) rotate(90.06)"/><rect class="cls-4" x="504.41" y="397.95" width="164.71" height="43.56" transform="translate(1007.15 -166.57) rotate(90.06)"/><rect class="cls-5" x="542.4" y="516.43" width="164.71" height="43.56" transform="translate(1163.65 -85.95) rotate(90.06)"/><rect class="cls-6" x="530.31" y="368.03" width="164.71" height="43.56" transform="translate(1003.16 -222.42) rotate(90.06)"/><rect class="cls-1" x="105.44" y="360.92" width="164.71" height="43.56" transform="translate(570.71 195.32) rotate(90.06)"/><rect class="cls-2" x="124.36" y="492.98" width="164.71" height="43.56" transform="translate(721.7 308.62) rotate(90.06)"/><rect class="cls-3" x="74.19" y="311.88" width="164.71" height="43.56" transform="translate(490.38 177.48) rotate(90.06)"/><rect class="cls-4" x="61.78" y="452.07" width="164.71" height="43.56" transform="translate(618.15 330.24) rotate(90.06)"/><rect class="cls-5" x="99.77" y="570.55" width="164.71" height="43.56" transform="translate(774.65 410.86) rotate(90.06)"/><rect class="cls-6" x="87.68" y="422.15" width="164.71" height="43.56" transform="translate(614.16 274.39) rotate(90.06)"/><rect class="cls-1" x="1363.75" y="109.64" width="164.71" height="43.56" transform="translate(1579.13 -1314.54) rotate(90.06)"/><rect class="cls-2" x="1382.66" y="241.71" width="164.71" height="43.56" transform="translate(1730.13 -1201.24) rotate(90.06)"/><rect class="cls-3" x="1332.5" y="60.6" width="164.71" height="43.56" transform="translate(1498.8 -1332.38) rotate(90.06)"/><rect class="cls-4" x="1320.09" y="200.8" width="164.71" height="43.56" transform="translate(1626.58 -1179.62) rotate(90.06)"/><rect class="cls-5" x="1358.07" y="319.27" width="164.71" height="43.56" transform="translate(1783.08 -1099) rotate(90.06)"/><rect class="cls-6" x="1345.99" y="170.88" width="164.71" height="43.56" transform="translate(1622.59 -1235.47) rotate(90.06)"/><path class="cls-7" d="M1361.65,117.32c-20.12-13.08-57.34-32.19-106.63-32.19-60.36,0-92.56,37.22-92.56,81.48,0,47.28,31.19,69.41,101.61,99.59,88.53,36.22,139.83,82.5,139.83,165,0,97.58-74.44,162-194.15,162-54.33,0-106.64-15.09-143.86-37.22L1089,491.55c29.17,17.1,76.45,37.22,123.73,37.22,73.44,0,109.66-39.23,109.66-88.53,0-51.3-29.18-79.47-101.61-108.65C1128.26,294.37,1081,243.07,1081,176.67c0-85.51,68.41-155.93,179.07-155.93,52.31,0,96.57,15.09,125.75,33.2Z"/><path class="cls-7" d="M1387.55,285.26c-20.12-13.08-57.34-32.19-106.63-32.19-60.36,0-92.56,37.22-92.56,81.49,0,47.28,31.19,69.41,101.61,99.59,88.53,36.22,139.83,82.49,139.83,165,0,97.59-74.44,162-194.15,162-54.33,0-106.64-15.09-143.86-37.22l23.14-64.39c29.17,17.11,76.45,37.23,123.73,37.23,73.44,0,109.66-39.24,109.66-88.53,0-51.31-29.18-79.48-101.61-108.65-92.55-37.22-139.83-88.53-139.83-154.92,0-85.51,68.41-155.93,179.07-155.93,52.31,0,96.57,15.09,125.75,33.19Z"/></g></g></svg>