<svg xmlns="http://www.w3.org/2000/svg" xmlns:xlink="http://www.w3.org/1999/xlink" viewBox="0 0 1923.4 1009.95"><defs><style>.cls-1{fill:none;}.cls-2{clip-path:url(#clip-path);}.cls-3{clip-path:url(#clip-path-2);}.cls-4{fill:#006934;}.cls-5{fill:#0b2d15;}.cls-6{fill:#132e28;}.cls-7{fill:#231815;}.cls-8{fill:#365a37;}.cls-9{fill:#0a3a16;}.cls-10{fill:#fff;}</style><clipPath id="clip-path" transform="translate(1161.42 181.64)"><rect class="cls-1" width="469.69" height="469.69"/></clipPath><clipPath id="clip-path-2" transform="translate(1161.42 181.64)"><rect class="cls-1" x="-962.02" y="-49.52" width="1522.31" height="594.2"/></clipPath></defs><g id="レイヤー_2" data-name="レイヤー 2"><g id="レイヤー_1-2" data-name="レイヤー 1"><g class="cls-2"><g class="cls-3"><rect class="cls-4" x="450.08" y="278.09" width="195.9" height="51.81"/><rect class="cls-5" x="607.12" y="255.42" width="195.9" height="51.81"/><rect class="cls-6" x="391.79" y="315.32" width="195.9" height="51.81"/><rect class="cls-7" x="558.55" y="329.9" width="195.9" height="51.81"/><rect class="cls-8" x="699.4" y="284.56" width="195.9" height="51.81"/><rect class="cls-9" x="522.93" y="299.14" width="195.9" height="51.81"/><rect class="cls-4" x="698.59" y="257.04" width="195.9" height="51.81"/><rect class="cls-5" x="855.63" y="234.38" width="195.9" height="51.81"/><rect class="cls-6" x="640.3" y="294.28" width="195.9" height="51.81"/><rect class="cls-7" x="807.06" y="308.85" width="195.9" height="51.81"/><rect class="cls-8" x="947.91" y="263.52" width="195.9" height="51.81"/><rect class="cls-9" x="771.44" y="278.09" width="195.9" height="51.81"/><rect class="cls-4" x="477.6" y="360.66" width="195.9" height="51.81"/><rect class="cls-5" x="634.64" y="337.99" width="195.9" height="51.81"/><rect class="cls-6" x="419.31" y="397.89" width="195.9" height="51.81"/><rect class="cls-7" x="586.07" y="412.46" width="195.9" height="51.81"/><rect class="cls-8" x="726.92" y="367.13" width="195.9" height="51.81"/><rect class="cls-9" x="550.45" y="381.7" width="195.9" height="51.81"/><rect class="cls-4" x="169.99" y="106.48" width="195.9" height="51.81"/><rect class="cls-5" x="327.03" y="83.81" width="195.9" height="51.81"/><rect class="cls-6" x="111.71" y="143.71" width="195.9" height="51.81"/><rect class="cls-7" x="278.46" y="158.28" width="195.9" height="51.81"/><rect class="cls-8" x="419.31" y="112.95" width="195.9" height="51.81"/><rect class="cls-9" x="242.85" y="127.52" width="195.9" height="51.81"/><rect class="cls-4" x="377.22" y="635.88" width="195.9" height="51.81"/><rect class="cls-5" x="534.26" y="613.22" width="195.9" height="51.81"/><rect class="cls-6" x="318.94" y="673.12" width="195.9" height="51.81"/><rect class="cls-7" x="485.69" y="687.69" width="195.9" height="51.81"/><rect class="cls-8" x="626.54" y="642.36" width="195.9" height="51.81"/><rect class="cls-9" x="450.08" y="656.93" width="195.9" height="51.81"/><rect class="cls-4" x="424.17" y="206.85" width="195.9" height="51.81"/><rect class="cls-5" x="581.21" y="184.19" width="195.9" height="51.81"/><rect class="cls-6" x="365.89" y="244.09" width="195.9" height="51.81"/><rect class="cls-7" x="532.64" y="258.66" width="195.9" height="51.81"/><rect class="cls-8" x="673.49" y="213.33" width="195.9" height="51.81"/><rect class="cls-9" x="497.03" y="227.9" width="195.9" height="51.81"/><rect class="cls-4" x="454.93" y="109.72" width="195.9" height="51.81"/><rect class="cls-5" x="611.97" y="87.05" width="195.9" height="51.81"/><rect class="cls-6" x="396.65" y="146.95" width="195.9" height="51.81"/><rect class="cls-7" x="563.4" y="161.52" width="195.9" height="51.81"/><rect class="cls-8" x="704.25" y="116.19" width="195.9" height="51.81"/><rect class="cls-9" x="527.79" y="130.76" width="195.9" height="51.81"/><rect class="cls-4" x="157.04" y="339.61" width="195.9" height="51.81"/><rect class="cls-5" x="314.08" y="316.94" width="195.9" height="51.81"/><rect class="cls-6" x="98.76" y="376.85" width="195.9" height="51.81"/><rect class="cls-7" x="265.51" y="391.42" width="195.9" height="51.81"/><rect class="cls-8" x="406.36" y="346.09" width="195.9" height="51.81"/><rect class="cls-9" x="229.89" y="360.66" width="195.9" height="51.81"/><rect class="cls-4" x="328.65" y="475.6" width="195.9" height="51.81"/><rect class="cls-5" x="485.69" y="452.94" width="195.9" height="51.81"/><rect class="cls-6" x="270.37" y="512.84" width="195.9" height="51.81"/><rect class="cls-7" x="437.12" y="527.41" width="195.9" height="51.81"/><rect class="cls-8" x="577.97" y="482.08" width="195.9" height="51.81"/><rect class="cls-9" x="401.51" y="496.65" width="195.9" height="51.81"/><rect class="cls-4" x="758.49" y="334.75" width="195.9" height="51.81"/><rect class="cls-5" x="915.53" y="312.09" width="195.9" height="51.81"/><rect class="cls-6" x="700.21" y="371.99" width="195.9" height="51.81"/><rect class="cls-7" x="866.96" y="386.56" width="195.9" height="51.81"/><rect class="cls-8" x="1007.81" y="341.23" width="195.9" height="51.81"/><rect class="cls-9" x="831.34" y="355.8" width="195.9" height="51.81"/><rect class="cls-4" x="933.34" y="177.71" width="195.9" height="51.81"/><rect class="cls-5" x="1090.38" y="155.05" width="195.9" height="51.81"/><rect class="cls-6" x="875.06" y="214.95" width="195.9" height="51.81"/><rect class="cls-7" x="1041.81" y="229.52" width="195.9" height="51.81"/><rect class="cls-8" x="1182.66" y="184.19" width="195.9" height="51.81"/><rect class="cls-9" x="1006.19" y="198.76" width="195.9" height="51.81"/><rect class="cls-4" x="1072.57" y="98.38" width="195.9" height="51.81"/><rect class="cls-5" x="1229.61" y="75.72" width="195.9" height="51.81"/><rect class="cls-6" x="1014.29" y="135.62" width="195.9" height="51.81"/><rect class="cls-7" x="1181.04" y="150.19" width="195.9" height="51.81"/><rect class="cls-8" x="1321.89" y="104.86" width="195.9" height="51.81"/><rect class="cls-9" x="1145.42" y="119.43" width="195.9" height="51.81"/><rect class="cls-4" x="1355.89" y="143.71" width="195.9" height="51.81"/><rect class="cls-5" x="1512.93" y="121.05" width="195.9" height="51.81"/><rect class="cls-6" x="1297.61" y="180.95" width="195.9" height="51.81"/><rect class="cls-7" x="1464.36" y="195.52" width="195.9" height="51.81"/><rect class="cls-8" x="1605.21" y="150.19" width="195.9" height="51.81"/><rect class="cls-9" x="1428.75" y="164.76" width="195.9" height="51.81"/><rect class="cls-4" x="191.04" y="189.04" width="195.9" height="51.81"/><rect class="cls-5" x="348.08" y="166.38" width="195.9" height="51.81"/><rect class="cls-6" x="132.76" y="226.28" width="195.9" height="51.81"/><rect class="cls-7" x="299.51" y="240.85" width="195.9" height="51.81"/><rect class="cls-8" x="440.36" y="195.52" width="195.9" height="51.81"/><rect class="cls-9" x="263.89" y="210.09" width="195.9" height="51.81"/><rect class="cls-4" x="1389.08" y="608.36" width="195.9" height="51.81"/><rect class="cls-5" x="1546.12" y="585.69" width="195.9" height="51.81"/><rect class="cls-6" x="1330.8" y="645.6" width="195.9" height="51.81"/><rect class="cls-7" x="1497.55" y="660.17" width="195.9" height="51.81"/><rect class="cls-8" x="1638.4" y="614.84" width="195.9" height="51.81"/><rect class="cls-9" x="1461.93" y="629.41" width="195.9" height="51.81"/><rect class="cls-4" x="1112.24" y="512.84" width="195.9" height="51.81"/><rect class="cls-5" x="1269.28" y="490.17" width="195.9" height="51.81"/><rect class="cls-6" x="1053.95" y="550.08" width="195.9" height="51.81"/><rect class="cls-7" x="1220.71" y="564.65" width="195.9" height="51.81"/><rect class="cls-8" x="1361.56" y="519.32" width="195.9" height="51.81"/><rect class="cls-9" x="1185.09" y="533.89" width="195.9" height="51.81"/><rect class="cls-4" x="191.04" y="524.17" width="195.9" height="51.81"/><rect class="cls-5" x="348.08" y="501.51" width="195.9" height="51.81"/><rect class="cls-6" x="132.76" y="561.41" width="195.9" height="51.81"/><rect class="cls-7" x="299.51" y="575.98" width="195.9" height="51.81"/><rect class="cls-8" x="440.36" y="530.65" width="195.9" height="51.81"/><rect class="cls-9" x="263.89" y="545.22" width="195.9" height="51.81"/><rect class="cls-4" x="1168.9" y="323.42" width="195.9" height="51.81"/><rect class="cls-5" x="1325.94" y="300.75" width="195.9" height="51.81"/><rect class="cls-6" x="1110.62" y="360.66" width="195.9" height="51.81"/><rect class="cls-7" x="1277.37" y="375.23" width="195.9" height="51.81"/><rect class="cls-8" x="1418.22" y="329.9" width="195.9" height="51.81"/><rect class="cls-9" x="1241.75" y="344.47" width="195.9" height="51.81"/><rect class="cls-4" x="1194.8" y="232.76" width="195.9" height="51.81"/><rect class="cls-5" x="1351.84" y="210.09" width="195.9" height="51.81"/><rect class="cls-6" x="1136.52" y="269.99" width="195.9" height="51.81"/><rect class="cls-7" x="1303.27" y="284.56" width="195.9" height="51.81"/><rect class="cls-8" x="1444.13" y="239.23" width="195.9" height="51.81"/><rect class="cls-9" x="1267.66" y="253.8" width="195.9" height="51.81"/><rect class="cls-4" x="58.28" y="269.99" width="195.9" height="51.81"/><rect class="cls-5" x="215.32" y="247.33" width="195.9" height="51.81"/><rect class="cls-6" y="307.23" width="195.9" height="51.81"/><rect class="cls-7" x="166.75" y="321.8" width="195.9" height="51.81"/><rect class="cls-8" x="307.61" y="276.47" width="195.9" height="51.81"/><rect class="cls-9" x="131.14" y="291.04" width="195.9" height="51.81"/><rect class="cls-4" x="1049.1" y="593.79" width="195.9" height="51.81"/><rect class="cls-5" x="1206.14" y="571.12" width="195.9" height="51.81"/><rect class="cls-6" x="990.81" y="631.02" width="195.9" height="51.81"/><rect class="cls-7" x="1157.57" y="645.6" width="195.9" height="51.81"/><rect class="cls-8" x="1298.42" y="600.26" width="195.9" height="51.81"/><rect class="cls-9" x="1121.95" y="614.84" width="195.9" height="51.81"/><rect class="cls-4" x="205.61" y="652.07" width="195.9" height="51.81"/><rect class="cls-5" x="362.65" y="629.41" width="195.9" height="51.81"/><rect class="cls-6" x="147.33" y="689.31" width="195.9" height="51.81"/><rect class="cls-7" x="314.08" y="703.88" width="195.9" height="51.81"/><rect class="cls-8" x="454.93" y="658.55" width="195.9" height="51.81"/><rect class="cls-9" x="278.46" y="673.12" width="195.9" height="51.81"/><rect class="cls-4" x="-626.02" y="151.42" width="195.9" height="51.81" transform="translate(810.08 887.23) rotate(90.06)"/><rect class="cls-5" x="-603.53" y="308.48" width="195.9" height="51.81" transform="translate(989.66 1021.98) rotate(90.06)"/><rect class="cls-6" x="-663.2" y="93.09" width="195.9" height="51.81" transform="translate(714.54 866.01) rotate(90.06)"/><rect class="cls-7" x="-677.95" y="259.83" width="195.9" height="51.81" transform="translate(866.51 1047.69) rotate(90.06)"/><rect class="cls-8" x="-632.78" y="400.73" width="195.9" height="51.81" transform="translate(1052.64 1143.57) rotate(90.06)"/><rect class="cls-9" x="-647.15" y="224.25" width="195.9" height="51.81" transform="translate(861.76 981.27) rotate(90.06)"/><rect class="cls-4" x="-121.1" y="144.77" width="195.9" height="51.81" transform="translate(1308.92 375.66) rotate(90.06)"/><rect class="cls-5" x="-98.61" y="301.84" width="195.9" height="51.81" transform="translate(1488.51 510.4) rotate(90.06)"/><rect class="cls-6" x="-158.27" y="86.45" width="195.9" height="51.81" transform="translate(1213.39 354.44) rotate(90.06)"/><rect class="cls-7" x="-173.02" y="253.19" width="195.9" height="51.81" transform="translate(1365.35 536.12) rotate(90.06)"/><rect class="cls-8" x="-127.85" y="394.09" width="195.9" height="51.81" transform="translate(1551.48 632) rotate(90.06)"/><rect class="cls-9" x="-142.22" y="217.6" width="195.9" height="51.81" transform="translate(1360.6 469.69) rotate(90.06)"/><rect class="cls-4" x="-709.59" y="455.11" width="195.9" height="51.81" transform="translate(1030.12 1274.83) rotate(90.06)"/><rect class="cls-5" x="-687.1" y="612.18" width="195.9" height="51.81" transform="translate(1209.7 1409.57) rotate(90.06)"/><rect class="cls-6" x="-746.76" y="396.79" width="195.9" height="51.81" transform="translate(934.58 1253.61) rotate(90.06)"/><rect class="cls-7" x="-761.51" y="563.53" width="195.9" height="51.81" transform="translate(1086.55 1435.29) rotate(90.06)"/><rect class="cls-8" x="-716.34" y="704.43" width="195.9" height="51.81" transform="translate(1272.67 1531.17) rotate(90.06)"/><rect class="cls-9" x="-730.71" y="527.94" width="195.9" height="51.81" transform="translate(1081.8 1368.87) rotate(90.06)"/><rect class="cls-4" x="-330.29" y="455.11" width="195.9" height="51.81" transform="translate(1409.84 895.53) rotate(90.06)"/><rect class="cls-5" x="-307.8" y="612.18" width="195.9" height="51.81" transform="translate(1589.42 1030.27) rotate(90.06)"/><rect class="cls-6" x="-367.46" y="396.79" width="195.9" height="51.81" transform="translate(1314.3 874.31) rotate(90.06)"/><rect class="cls-7" x="-382.21" y="563.53" width="195.9" height="51.81" transform="translate(1466.27 1055.99) rotate(90.06)"/><rect class="cls-8" x="-337.04" y="704.43" width="195.9" height="51.81" transform="translate(1652.39 1151.87) rotate(90.06)"/><rect class="cls-9" x="-351.41" y="527.94" width="195.9" height="51.81" transform="translate(1461.52 989.57) rotate(90.06)"/><rect class="cls-4" x="-801.54" y="314.88" width="195.9" height="51.81" transform="translate(797.84 1226.4) rotate(90.06)"/><rect class="cls-5" x="-779.05" y="471.95" width="195.9" height="51.81" transform="translate(977.42 1361.14) rotate(90.06)"/><rect class="cls-6" x="-838.71" y="256.56" width="195.9" height="51.81" transform="translate(702.3 1205.18) rotate(90.06)"/><rect class="cls-7" x="-853.47" y="423.3" width="195.9" height="51.81" transform="translate(854.27 1386.86) rotate(90.06)"/><rect class="cls-8" x="-808.29" y="564.2" width="195.9" height="51.81" transform="translate(1040.39 1482.74) rotate(90.06)"/><rect class="cls-9" x="-822.67" y="387.72" width="195.9" height="51.81" transform="translate(849.52 1320.44) rotate(90.06)"/><rect class="cls-4" x="55.91" y="126.38" width="195.9" height="51.81" transform="translate(1467.74 180.24) rotate(90.06)"/><rect class="cls-5" x="78.4" y="283.45" width="195.9" height="51.81" transform="translate(1647.32 314.99) rotate(90.06)"/><rect class="cls-6" x="18.74" y="68.06" width="195.9" height="51.81" transform="translate(1372.2 159.02) rotate(90.06)"/><rect class="cls-7" x="3.98" y="234.8" width="195.9" height="51.81" transform="translate(1524.17 340.7) rotate(90.06)"/><rect class="cls-8" x="49.16" y="375.7" width="195.9" height="51.81" transform="translate(1710.29 436.58) rotate(90.06)"/><rect class="cls-9" x="34.78" y="199.21" width="195.9" height="51.81" transform="translate(1519.42 274.28) rotate(90.06)"/><rect class="cls-4" x="267.4" y="183.85" width="195.9" height="51.81" transform="translate(1736.93 26.28) rotate(90.06)"/><rect class="cls-5" x="289.89" y="340.92" width="195.9" height="51.81" transform="translate(1916.51 161.03) rotate(90.06)"/><rect class="cls-6" x="230.23" y="125.53" width="195.9" height="51.81" transform="translate(1641.39 5.07) rotate(90.06)"/><rect class="cls-7" x="215.47" y="292.27" width="195.9" height="51.81" transform="translate(1793.36 186.74) rotate(90.06)"/><rect class="cls-8" x="260.65" y="433.17" width="195.9" height="51.81" transform="translate(1979.48 282.63) rotate(90.06)"/><rect class="cls-9" x="246.27" y="256.68" width="195.9" height="51.81" transform="translate(1788.61 120.32) rotate(90.06)"/><rect class="cls-4" x="-884.3" y="153.97" width="195.9" height="51.81" transform="translate(554.08 1148.06) rotate(90.06)"/><rect class="cls-5" x="-861.8" y="311.04" width="195.9" height="51.81" transform="translate(733.66 1282.81) rotate(90.06)"/><rect class="cls-6" x="-921.47" y="95.65" width="195.9" height="51.81" transform="translate(458.54 1126.84) rotate(90.06)"/><rect class="cls-7" x="-936.22" y="262.38" width="195.9" height="51.81" transform="translate(610.5 1308.52) rotate(90.06)"/><rect class="cls-8" x="-891.05" y="403.28" width="195.9" height="51.81" transform="translate(796.63 1404.4) rotate(90.06)"/><rect class="cls-9" x="-905.42" y="226.8" width="195.9" height="51.81" transform="translate(605.75 1242.1) rotate(90.06)"/><rect class="cls-4" x="-285.8" y="181.3" width="195.9" height="51.81" transform="translate(1180.56 576.93) rotate(90.06)"/><rect class="cls-5" x="-263.31" y="338.37" width="195.9" height="51.81" transform="translate(1360.14 711.68) rotate(90.06)"/><rect class="cls-6" x="-322.97" y="122.98" width="195.9" height="51.81" transform="translate(1085.03 555.71) rotate(90.06)"/><rect class="cls-7" x="-337.73" y="289.71" width="195.9" height="51.81" transform="translate(1236.99 737.39) rotate(90.06)"/><rect class="cls-8" x="-292.55" y="430.62" width="195.9" height="51.81" transform="translate(1423.12 833.27) rotate(90.06)"/><rect class="cls-9" x="-306.93" y="254.13" width="195.9" height="51.81" transform="translate(1232.24 670.97) rotate(90.06)"/><rect class="cls-4" x="-789.24" y="77.86" width="195.9" height="51.81" transform="translate(573.12 976.8) rotate(90.06)"/><rect class="cls-5" x="-766.75" y="234.92" width="195.9" height="51.81" transform="translate(752.71 1111.55) rotate(90.06)"/><rect class="cls-6" x="-826.41" y="19.53" width="195.9" height="51.81" transform="translate(477.59 955.59) rotate(90.06)"/><rect class="cls-7" x="-841.16" y="186.27" width="195.9" height="51.81" transform="translate(629.55 1137.26) rotate(90.06)"/><rect class="cls-8" x="-795.99" y="327.17" width="195.9" height="51.81" transform="translate(815.68 1233.15) rotate(90.06)"/><rect class="cls-9" x="-810.36" y="150.69" width="195.9" height="51.81" transform="translate(624.8 1070.84) rotate(90.06)"/><rect class="cls-4" x="507.73" y="75.51" width="195.9" height="51.81" transform="translate(2372.66 385.13) rotate(-179.94)"/><rect class="cls-5" x="350.66" y="98" width="195.9" height="51.81" transform="translate(2058.5 429.94) rotate(-179.94)"/><rect class="cls-6" x="566.05" y="38.34" width="195.9" height="51.81" transform="translate(2489.35 310.85) rotate(-179.94)"/><rect class="cls-7" x="399.31" y="23.58" width="195.9" height="51.81" transform="translate(2155.89 281.16) rotate(-179.94)"/><rect class="cls-8" x="258.41" y="68.76" width="195.9" height="51.81" transform="translate(1874.03 371.35) rotate(-179.94)"/><rect class="cls-9" x="434.9" y="54.38" width="195.9" height="51.81" transform="translate(2227.02 342.8) rotate(-179.94)"/><rect class="cls-4" x="172.6" y="251.98" width="195.9" height="51.81" transform="translate(1702.2 737.7) rotate(-179.94)"/><rect class="cls-5" x="15.53" y="274.47" width="195.9" height="51.81" transform="translate(1388.05 782.51) rotate(-179.94)"/><rect class="cls-6" x="230.92" y="214.8" width="195.9" height="51.81" transform="translate(1818.89 663.42) rotate(-179.94)"/><rect class="cls-7" x="64.18" y="200.05" width="195.9" height="51.81" transform="translate(1485.43 633.72) rotate(-179.94)"/><rect class="cls-8" x="-76.72" y="245.22" width="195.9" height="51.81" transform="translate(1203.58 723.92) rotate(-179.94)"/><rect class="cls-9" x="99.77" y="230.85" width="195.9" height="51.81" transform="translate(1556.57 695.36) rotate(-179.94)"/><rect class="cls-4" x="-813.36" y="434.92" width="195.9" height="51.81" transform="translate(-269.91 1102.49) rotate(-179.94)"/><rect class="cls-5" x="-970.42" y="457.41" width="195.9" height="51.81" transform="translate(-584.06 1147.3) rotate(-179.94)"/><rect class="cls-6" x="-755.03" y="397.75" width="195.9" height="51.81" transform="translate(-153.22 1028.22) rotate(-179.94)"/><rect class="cls-7" x="-921.77" y="382.99" width="195.9" height="51.81" transform="translate(-486.68 998.52) rotate(-179.94)"/><rect class="cls-8" x="-1062.67" y="428.17" width="195.9" height="51.81" transform="translate(-768.53 1088.71) rotate(-179.94)"/><rect class="cls-9" x="-886.19" y="413.79" width="195.9" height="51.81" transform="translate(-415.55 1060.16) rotate(-179.94)"/><rect class="cls-4" x="-861.93" y="276.26" width="195.9" height="51.81" transform="translate(-366.87 785.12) rotate(-179.94)"/><rect class="cls-5" x="-1018.99" y="298.75" width="195.9" height="51.81" transform="translate(-681.03 829.93) rotate(-179.94)"/><rect class="cls-6" x="-803.6" y="239.09" width="195.9" height="51.81" transform="translate(-250.18 710.84) rotate(-179.94)"/><rect class="cls-7" x="-970.34" y="224.33" width="195.9" height="51.81" transform="translate(-583.64 681.15) rotate(-179.94)"/><rect class="cls-8" x="-1111.24" y="269.51" width="195.9" height="51.81" transform="translate(-865.49 771.34) rotate(-179.94)"/><rect class="cls-9" x="-934.76" y="255.13" width="195.9" height="51.81" transform="translate(-512.51 742.79) rotate(-179.94)"/><rect class="cls-4" x="-555.94" y="308.64" width="195.9" height="51.81" transform="translate(245.07 850.22) rotate(-179.94)"/><rect class="cls-5" x="-713.01" y="331.13" width="195.9" height="51.81" transform="translate(-69.09 895.03) rotate(-179.94)"/><rect class="cls-6" x="-497.62" y="271.47" width="195.9" height="51.81" transform="translate(361.76 775.94) rotate(-179.94)"/><rect class="cls-7" x="-664.35" y="256.71" width="195.9" height="51.81" transform="translate(28.3 746.24) rotate(-179.94)"/><rect class="cls-8" x="-805.26" y="301.89" width="195.9" height="51.81" transform="translate(-253.56 836.44) rotate(-179.94)"/><rect class="cls-9" x="-628.77" y="287.51" width="195.9" height="51.81" transform="translate(99.43 807.88) rotate(-179.94)"/><rect class="cls-4" x="-179.55" y="242.09" width="195.9" height="51.81" transform="translate(997.91 717.54) rotate(-179.94)"/><rect class="cls-5" x="-336.62" y="264.58" width="195.9" height="51.81" transform="translate(683.76 762.35) rotate(-179.94)"/><rect class="cls-6" x="-121.23" y="204.92" width="195.9" height="51.81" transform="translate(1114.6 643.26) rotate(-179.94)"/><rect class="cls-7" x="-287.97" y="190.16" width="195.9" height="51.81" transform="translate(781.14 613.57) rotate(-179.94)"/><rect class="cls-8" x="-428.87" y="235.34" width="195.9" height="51.81" transform="translate(499.29 703.76) rotate(-179.94)"/><rect class="cls-9" x="-252.38" y="220.96" width="195.9" height="51.81" transform="translate(852.27 675.2) rotate(-179.94)"/><rect class="cls-4" x="-474.21" y="399.13" width="195.9" height="51.81" transform="translate(408.43 1031.29) rotate(-179.94)"/><rect class="cls-5" x="-631.27" y="421.62" width="195.9" height="51.81" transform="translate(94.28 1076.1) rotate(-179.94)"/><rect class="cls-6" x="-415.88" y="361.96" width="195.9" height="51.81" transform="translate(525.12 957.02) rotate(-179.94)"/><rect class="cls-7" x="-582.62" y="347.2" width="195.9" height="51.81" transform="translate(191.66 927.32) rotate(-179.94)"/><rect class="cls-8" x="-723.52" y="392.38" width="195.9" height="51.81" transform="translate(-90.19 1017.51) rotate(-179.94)"/><rect class="cls-9" x="-547.04" y="378" width="195.9" height="51.81" transform="translate(262.79 988.96) rotate(-179.94)"/><rect class="cls-4" x="25.27" y="96.55" width="195.9" height="51.81" transform="translate(1407.72 426.69) rotate(-179.94)"/><rect class="cls-5" x="-131.79" y="119.05" width="195.9" height="51.81" transform="translate(1093.57 471.5) rotate(-179.94)"/><rect class="cls-6" x="83.6" y="59.38" width="195.9" height="51.81" transform="translate(1524.41 352.41) rotate(-179.94)"/><rect class="cls-7" x="-83.14" y="44.63" width="195.9" height="51.81" transform="translate(1190.95 322.72) rotate(-179.94)"/><rect class="cls-8" x="-224.04" y="89.8" width="195.9" height="51.81" transform="translate(909.1 412.91) rotate(-179.94)"/><rect class="cls-9" x="-47.56" y="75.43" width="195.9" height="51.81" transform="translate(1262.09 384.36) rotate(-179.94)"/><rect class="cls-4" x="473.73" y="383.11" width="195.9" height="51.81" transform="translate(2304.32 1000.31) rotate(-179.94)"/><rect class="cls-5" x="316.66" y="405.6" width="195.9" height="51.81" transform="translate(1990.16 1045.12) rotate(-179.94)"/><rect class="cls-6" x="532.05" y="345.94" width="195.9" height="51.81" transform="translate(2421.01 926.03) rotate(-179.94)"/><rect class="cls-7" x="365.31" y="331.19" width="195.9" height="51.81" transform="translate(2087.55 896.33) rotate(-179.94)"/><rect class="cls-8" x="224.41" y="376.36" width="195.9" height="51.81" transform="translate(1805.7 986.53) rotate(-179.94)"/><rect class="cls-9" x="400.9" y="361.99" width="195.9" height="51.81" transform="translate(2158.68 957.97) rotate(-179.94)"/><rect class="cls-4" x="-225.67" y="420.35" width="195.9" height="51.81" transform="translate(905.48 1074) rotate(-179.94)"/><rect class="cls-5" x="-382.74" y="442.84" width="195.9" height="51.81" transform="translate(591.33 1118.81) rotate(-179.94)"/><rect class="cls-6" x="-167.35" y="383.18" width="195.9" height="51.81" transform="translate(1022.17 999.73) rotate(-179.94)"/><rect class="cls-7" x="-334.08" y="368.42" width="195.9" height="51.81" transform="translate(688.71 970.03) rotate(-179.94)"/><rect class="cls-8" x="-474.98" y="413.6" width="195.9" height="51.81" transform="translate(406.86 1060.22) rotate(-179.94)"/><rect class="cls-9" x="-298.5" y="399.22" width="195.9" height="51.81" transform="translate(759.85 1031.67) rotate(-179.94)"/><rect class="cls-4" x="723.68" y="145.33" width="195.9" height="51.81"/><rect class="cls-5" x="880.72" y="122.67" width="195.9" height="51.81"/><rect class="cls-6" x="665.4" y="182.57" width="195.9" height="51.81"/><rect class="cls-7" x="832.15" y="197.14" width="195.9" height="51.81"/><rect class="cls-8" x="973" y="151.81" width="195.9" height="51.81"/><rect class="cls-9" x="796.54" y="166.38" width="195.9" height="51.81"/><rect class="cls-4" x="1057.19" y="665.02" width="195.9" height="51.81"/><rect class="cls-5" x="1214.23" y="642.36" width="195.9" height="51.81"/><rect class="cls-6" x="998.91" y="702.26" width="195.9" height="51.81"/><rect class="cls-7" x="1165.66" y="716.83" width="195.9" height="51.81"/><rect class="cls-8" x="1306.51" y="671.5" width="195.9" height="51.81"/><rect class="cls-9" x="1130.04" y="686.07" width="195.9" height="51.81"/><rect class="cls-4" x="712.35" y="648.83" width="195.9" height="51.81"/><rect class="cls-5" x="869.39" y="626.17" width="195.9" height="51.81"/><rect class="cls-6" x="654.07" y="686.07" width="195.9" height="51.81"/><rect class="cls-7" x="820.82" y="700.64" width="195.9" height="51.81"/><rect class="cls-8" x="961.67" y="655.31" width="195.9" height="51.81"/><rect class="cls-9" x="785.2" y="669.88" width="195.9" height="51.81"/><rect class="cls-4" x="1423.08" y="436.75" width="195.9" height="51.81"/><rect class="cls-5" x="1580.12" y="414.08" width="195.9" height="51.81"/><rect class="cls-6" x="1364.8" y="473.98" width="195.9" height="51.81"/><rect class="cls-7" x="1531.55" y="488.56" width="195.9" height="51.81"/><rect class="cls-8" x="1672.4" y="443.22" width="195.9" height="51.81"/><rect class="cls-9" x="1495.93" y="457.79" width="195.9" height="51.81"/><rect class="cls-4" x="1463.55" y="325.04" width="195.9" height="51.81"/><rect class="cls-5" x="1620.59" y="302.37" width="195.9" height="51.81"/><rect class="cls-6" x="1405.27" y="362.28" width="195.9" height="51.81"/><rect class="cls-7" x="1572.02" y="376.85" width="195.9" height="51.81"/><rect class="cls-8" x="1712.88" y="331.51" width="195.9" height="51.81"/><rect class="cls-9" x="1536.41" y="346.09" width="195.9" height="51.81"/><rect class="cls-4" x="830.53" y="462.65" width="195.9" height="51.81"/><rect class="cls-5" x="987.57" y="439.99" width="195.9" height="51.81"/><rect class="cls-6" x="772.25" y="499.89" width="195.9" height="51.81"/><rect class="cls-7" x="939.01" y="514.46" width="195.9" height="51.81"/><rect class="cls-8" x="1079.86" y="469.13" width="195.9" height="51.81"/><rect class="cls-9" x="903.39" y="483.7" width="195.9" height="51.81"/><rect class="cls-4" x="1439.27" y="103.24" width="195.9" height="51.81"/><rect class="cls-5" x="1596.31" y="80.57" width="195.9" height="51.81"/><rect class="cls-6" x="1380.99" y="140.48" width="195.9" height="51.81"/><rect class="cls-7" x="1547.74" y="155.05" width="195.9" height="51.81"/><rect class="cls-8" x="1688.59" y="109.72" width="195.9" height="51.81"/><rect class="cls-9" x="1512.12" y="124.29" width="195.9" height="51.81"/><rect class="cls-4" x="1411.75" y="673.12" width="195.9" height="51.81"/><rect class="cls-5" x="1568.79" y="650.45" width="195.9" height="51.81"/><rect class="cls-6" x="1353.46" y="710.35" width="195.9" height="51.81"/><rect class="cls-7" x="1520.22" y="724.93" width="195.9" height="51.81"/><rect class="cls-8" x="1661.07" y="679.59" width="195.9" height="51.81"/><rect class="cls-9" x="1484.6" y="694.16" width="195.9" height="51.81"/><rect class="cls-4" x="-121.1" y="165.46" width="195.9" height="51.81" transform="translate(1329.61 396.37) rotate(90.06)"/><rect class="cls-5" x="-98.61" y="322.53" width="195.9" height="51.81" transform="translate(1509.2 531.12) rotate(90.06)"/><rect class="cls-6" x="-158.27" y="107.14" width="195.9" height="51.81" transform="translate(1234.08 375.15) rotate(90.06)"/><rect class="cls-7" x="-173.02" y="273.88" width="195.9" height="51.81" transform="translate(1386.04 556.83) rotate(90.06)"/><rect class="cls-8" x="-127.85" y="414.78" width="195.9" height="51.81" transform="translate(1572.17 652.71) rotate(90.06)"/><rect class="cls-9" x="-142.22" y="238.29" width="195.9" height="51.81" transform="translate(1381.29 490.41) rotate(90.06)"/><rect class="cls-4" x="-509.59" y="158.57" width="195.9" height="51.81" transform="translate(933.79 777.96) rotate(90.06)"/><rect class="cls-5" x="-487.1" y="315.63" width="195.9" height="51.81" transform="translate(1113.37 912.71) rotate(90.06)"/><rect class="cls-6" x="-546.76" y="100.24" width="195.9" height="51.81" transform="translate(838.25 756.74) rotate(90.06)"/><rect class="cls-7" x="-561.52" y="266.98" width="195.9" height="51.81" transform="translate(990.22 938.42) rotate(90.06)"/><rect class="cls-8" x="-516.34" y="407.88" width="195.9" height="51.81" transform="translate(1176.35 1034.3) rotate(90.06)"/><rect class="cls-9" x="-530.72" y="231.4" width="195.9" height="51.81" transform="translate(985.47 872) rotate(90.06)"/><rect class="cls-4" x="-1036.02" y="222.93" width="195.9" height="51.81" transform="translate(471.15 1368.82) rotate(90.06)"/><rect class="cls-5" x="-1013.52" y="380" width="195.9" height="51.81" transform="translate(650.73 1503.57) rotate(90.06)"/><rect class="cls-6" x="-1073.19" y="164.61" width="195.9" height="51.81" transform="translate(375.61 1347.6) rotate(90.06)"/><rect class="cls-7" x="-1087.94" y="331.35" width="195.9" height="51.81" transform="translate(527.58 1529.28) rotate(90.06)"/><rect class="cls-8" x="-1042.77" y="472.25" width="195.9" height="51.81" transform="translate(713.71 1625.16) rotate(90.06)"/><rect class="cls-9" x="-1057.14" y="295.76" width="195.9" height="51.81" transform="translate(522.83 1462.86) rotate(90.06)"/><path class="cls-10" d="M458-66.78c-23.93-15.55-68.2-38.29-126.82-38.29-71.79,0-110.07,44.27-110.07,96.91,0,56.24,37.09,82.56,120.84,118.45,105.28,43.07,166.3,98.11,166.3,196.22,0,116.05-88.54,192.63-230.91,192.63-64.61,0-126.82-17.95-171.09-44.27l27.52-76.58c34.69,20.34,90.93,44.27,147.16,44.27,87.34,0,130.41-46.66,130.41-105.28,0-61-34.7-94.52-120.84-129.22C180.43,143.79,124.19,82.77,124.19,3.81c0-101.7,81.36-185.45,213-185.45,62.22,0,114.86,17.95,149.56,39.48Z" transform="translate(1161.42 181.64)"/><path class="cls-10" d="M488.8,133C464.87,117.4,420.61,94.67,362,94.67c-71.78,0-110.07,44.27-110.07,96.91,0,56.24,37.09,82.56,120.84,118.45C478,353.1,539.05,408.14,539.05,506.25c0,116-88.53,192.62-230.91,192.62-64.61,0-126.82-17.94-171.09-44.27L164.57,578c34.7,20.34,90.93,44.27,147.16,44.27,87.34,0,130.41-46.66,130.41-105.29,0-61-34.69-94.51-120.84-129.21C211.23,343.53,155,282.51,155,203.55,155,101.85,236.35,18.1,368,18.1c62.22,0,114.86,17.95,149.56,39.48Z" transform="translate(1161.42 181.64)"/></g></g></g></g></svg>